<?xml version="1.0" encoding="UTF-8"?>
<svg id="Layer_1" data-name="Layer 1" xmlns="http://www.w3.org/2000/svg" xmlns:xlink="http://www.w3.org/1999/xlink" viewBox="0 0 422.48 112.41">
  <defs>
    <style>
      .cls-1 {
        fill: none;
      }

      .cls-2, .cls-3 {
        fill: #fcd6d2;
      }

      .cls-4 {
        clip-path: url(#clippath-1);
      }

      .cls-3 {
        fill-rule: evenodd;
      }

      .cls-5 {
        clip-path: url(#clippath);
      }
    </style>
    <clipPath id="clippath">
      <rect class="cls-1" width="90.57" height="110.34"/>
    </clipPath>
    <clipPath id="clippath-1">
      <rect class="cls-1" x="73.2" y="71.45" width="34.8" height="33.89"/>
    </clipPath>
  </defs>
  <path class="cls-2" d="M114.4,60.1c-.66,0-.98-.19-.98-.56,0-.29.18-.44.54-.44l.75.08c.54,0,.92-.26,1.13-.79.23-.58.35-1.69.35-3.31v-10.69c0-1.69-.09-2.75-.27-3.17-.17-.43-.35-.69-.56-.79-.2-.11-.44-.17-.73-.17l-.67.08c-.36,0-.54-.15-.54-.44,0-.38.28-.56.83-.56s1.04.04,1.46.13c.42.07.81.1,1.19.1s.71-.01,1.02-.04c.32-.04.65-.08,1-.13.97-.14,1.82-.21,2.54-.21s1.45.11,2.19.33c.73.21,1.36.51,1.88.9,1.11.82,1.67,1.89,1.67,3.19,0,1.72-.73,3.18-2.19,4.38,1.26.36,2.32,1.07,3.19,2.13.89,1.1,1.33,2.33,1.33,3.69,0,1.92-.64,3.47-1.9,4.65-1.28,1.2-2.95,1.79-5,1.79-.66,0-1.41-.04-2.25-.13-1.67-.17-2.79-.25-3.38-.25l-2.6.23ZM118.56,47.73c1.14.11,2.05.17,2.75.17,1.03,0,1.65-.01,1.88-.04.23-.04.45-.15.65-.31.19-.18.38-.4.54-.67.36-.63.54-1.29.54-2s-.12-1.33-.35-1.88c-.24-.54-.56-1-.98-1.38-.85-.76-1.92-1.15-3.21-1.15-.61,0-1.19.1-1.73.31-.03.5-.05.89-.06,1.15,0,.25-.01.48-.02.69v5.1ZM125.63,50.81c-.42-.53-.93-.95-1.54-1.27-.61-.32-1.19-.48-1.73-.48h-1.65c-.57,0-1.29.03-2.15.08v3.75c0,2.27.03,4.01.1,5.23.9.56,2.06.83,3.48.83,2.25,0,3.73-.8,4.44-2.42.22-.54.33-1.17.33-1.9s-.11-1.41-.33-2.06c-.22-.67-.54-1.26-.96-1.77Z"/>
  <path class="cls-2" d="M139.3,60.1c-.67,0-1-.19-1-.56,0-.29.19-.44.56-.44l.73.08c.61,0,1.02-.34,1.23-1.02.17-.58.25-1.61.25-3.08v-10.69c0-1.48-.07-2.46-.21-2.92-.14-.46-.31-.77-.5-.94-.2-.17-.45-.25-.77-.25l-.73.06c-.38,0-.56-.15-.56-.44,0-.38.28-.56.83-.56s1.08.04,1.58.13c.5.07,1.02.1,1.56.1s1.08-.03,1.58-.1c.5-.08,1.14-.13,1.92-.13s1.61.13,2.52.38c.9.25,1.66.61,2.27,1.08,1.28.96,1.92,2.23,1.92,3.81,0,1.75-.72,3.27-2.17,4.54-.46.41-.97.74-1.54,1.02l4.92,7.15c.55.82,1.17,1.31,1.83,1.48.19.06.44.1.73.13.51.06.77.23.77.52s-.28.42-.83.42h-2.9c-.7,0-1.33-.45-1.9-1.35l-3.81-6.1c-.35-.54-.68-.92-1-1.15-.31-.22-.79-.33-1.44-.33s-1.22.02-1.71.04v4.1c0,1.52.07,2.49.21,2.94.14.45.3.75.5.92.19.17.46.25.79.25l.73-.08c.36,0,.54.15.54.44,0,.38-.33.56-.98.56-.33,0-.69-.03-1.06-.08-1.21-.19-2.24-.23-3.1-.1-.86.13-1.45.19-1.77.19ZM143.45,49.64c.67.07,1.3.1,1.9.1h.96c.98,0,1.81-.33,2.48-1,.79-.78,1.19-1.84,1.19-3.19,0-1.61-.49-2.88-1.48-3.81-.92-.89-2.1-1.33-3.54-1.33-.52,0-.9.07-1.15.21-.24.14-.35.39-.35.73v8.29Z"/>
  <path class="cls-2" d="M165.44,60.1c-.66,0-.98-.19-.98-.56,0-.29.18-.44.54-.44l.75.08c.54,0,.92-.26,1.13-.79.23-.58.35-1.69.35-3.31l-.08-10.69c0-1.67-.09-2.71-.27-3.15-.17-.43-.35-.69-.54-.79-.18-.11-.41-.17-.67-.17l-.75.06c-.36,0-.54-.15-.54-.44,0-.38.28-.56.83-.56s1.08.04,1.58.13c.5.07,1.02.1,1.56.1s1.07-.03,1.56-.1c.5-.08,1.02-.13,1.56-.13s.83.19.83.56c0,.29-.18.44-.54.44l-.73-.06c-.54,0-.93.27-1.15.79-.22.58-.33,1.69-.33,3.31l.06,10.69c0,1.63.09,2.66.29,3.1.21.45.41.72.6.83.21.11.44.17.71.17l.73-.08c.36,0,.54.15.54.44,0,.38-.33.56-.98.56-.33,0-.69-.03-1.06-.08-1.27-.21-2.34-.25-3.23-.13-.88.14-1.47.21-1.79.21Z"/>
  <path class="cls-2" d="M181.75,60.1c-.67,0-1-.19-1-.56,0-.29.19-.44.56-.44l.73.08c.61,0,1.02-.34,1.23-1.02.17-.58.25-1.61.25-3.08v-10.69c0-1.48-.07-2.46-.21-2.92-.14-.46-.31-.77-.5-.94-.2-.17-.45-.25-.77-.25l-.73.06c-.38,0-.56-.15-.56-.44,0-.38.28-.56.83-.56s1.04.04,1.46.13c.42.07.82.1,1.23.1,1.07,0,1.96-.05,2.67-.15,1.07-.15,2.3-.23,3.69-.23s2.77.25,4.15.75c1.38.49,2.55,1.19,3.54,2.1,2.11,1.93,3.17,4.47,3.17,7.6,0,2.97-1.04,5.45-3.1,7.42-2.14,2.07-4.95,3.1-8.42,3.1-.83,0-1.65-.04-2.44-.13-1.46-.13-2.52-.19-3.17-.19l-2.6.23ZM185.89,52.89c0,1.79.05,3.47.15,5.02,1.34.7,2.85,1.04,4.52,1.04,1.22,0,2.49-.29,3.81-.88,2.07-.9,3.42-2.53,4.06-4.88.23-.82.35-1.89.35-3.21s-.23-2.59-.69-3.83c-.45-1.23-1.07-2.28-1.88-3.13-1.64-1.75-3.85-2.63-6.65-2.63-1.99,0-3.13.27-3.42.79-.16.28-.24.6-.25.96-.02.36-.02.72-.02,1.06v9.67Z"/>
  <path class="cls-2" d="M212.61,59.87c-.52,0-1,.03-1.46.1-.45.08-.93.13-1.46.13s-.77-.17-.77-.5.24-.52.73-.52.83-.09,1.04-.27c.34-.3.69-.81,1.02-1.52s.65-1.36.94-1.98c.29-.63.61-1.34.98-2.17.38-.82.78-1.73,1.23-2.75.46-1.01.94-2.09,1.44-3.23,1.29-3,2.14-5.01,2.54-6.04.42-1.04.65-1.61.69-1.73.05-.11.1-.21.15-.31.14-.21.25-.31.33-.31.09,0,.17.02.23.04.07.03.14.08.21.15.15.2.3.48.44.85.15.38.35.89.6,1.54.26.64.56,1.37.9,2.19.33.82.69,1.7,1.06,2.65.38.93.75,1.86,1.13,2.79.39.93.76,1.84,1.1,2.73.36.88.69,1.67.98,2.38.86,2.11,1.41,3.38,1.65,3.79.25.41.46.69.63.85.25.24.61.35,1.1.35s.75.18.75.52-.32.5-.96.5c-.27,0-.5-.02-.71-.04-.2-.03-.39-.05-.58-.06-.58-.08-1.1-.13-1.56-.13l-2.92.23c-.67,0-1-.19-1-.56,0-.3.19-.46.56-.46l.9.1c.39,0,.64-.08.75-.25.13-.17.19-.38.19-.63,0-.47-.2-1.21-.6-2.21l-1.25-3.15h-8.4c-.25.61-.48,1.17-.69,1.67s-.4.99-.56,1.46c-.28.78-.42,1.39-.42,1.83s.07.75.23.96c.17.21.46.31.9.31l.92-.08c.36,0,.54.15.54.44,0,.38-.33.56-.98.56l-2.52-.23ZM223.06,51.66l-3.6-9.02c-.7,1.77-1.94,4.77-3.73,9.02h7.33Z"/>
  <path class="cls-2" d="M238.71,60.1c-.56,0-.83-.19-.83-.56,0-.29.19-.44.56-.44l.73.08c.61,0,1.02-.34,1.23-1.02.17-.58.25-1.61.25-3.08v-10.69c0-1.48-.07-2.46-.21-2.92-.14-.46-.31-.77-.5-.94-.2-.17-.45-.25-.77-.25l-.73.06c-.38,0-.56-.15-.56-.44,0-.38.28-.56.83-.56s1.08.04,1.58.13c.5.07,1.02.1,1.56.1s1.05-.03,1.54-.1c.48-.08,1.01-.13,1.56-.13s.83.19.83.56c0,.29-.18.44-.54.44l-.73-.06c-.63,0-1.04.34-1.25,1.02-.17.53-.25,1.56-.25,3.08v8.54c0,2.21.05,4.04.17,5.5.73.21,1.55.31,2.44.31s1.67-.05,2.33-.15c.67-.11,1.23-.27,1.71-.48.92-.36,1.63-.98,2.13-1.88.21-.38.41-.56.6-.56.21,0,.31.16.31.46,0,.11-.04.27-.1.46-.08.27-.2.66-.35,1.19-.16.52-.28.91-.38,1.19-.1.28-.21.51-.33.69-.24.34-.57.52-1,.52s-.84-.01-1.23-.02c-.38,0-.77-.01-1.19-.02-.42-.02-.87-.04-1.35-.06-.49-.03-1.04-.06-1.67-.08-.61-.03-1.15-.06-1.6-.08-.45-.03-.9-.04-1.35-.04s-.82.01-1.13.04c-.29.03-.56.05-.79.06-.24.03-.47.05-.71.08-.24.03-.51.04-.81.04Z"/>
  <path class="cls-2" d="M275.84,60.1c-.66,0-.98-.19-.98-.56,0-.29.18-.44.54-.44l.75.08c.54,0,.92-.26,1.13-.79.23-.58.35-1.69.35-3.31v-10.69c0-1.69-.09-2.75-.27-3.17-.17-.43-.35-.69-.56-.79-.2-.11-.44-.17-.73-.17l-.67.08c-.36,0-.54-.15-.54-.44,0-.38.28-.56.83-.56s1.04.04,1.46.13c.42.07.81.1,1.19.1s.71-.01,1.02-.04c.32-.04.65-.08,1-.13.97-.14,1.82-.21,2.54-.21s1.45.11,2.19.33c.73.21,1.36.51,1.88.9,1.11.82,1.67,1.89,1.67,3.19,0,1.72-.73,3.18-2.19,4.38,1.26.36,2.32,1.07,3.19,2.13.89,1.1,1.33,2.33,1.33,3.69,0,1.92-.64,3.47-1.9,4.65-1.28,1.2-2.95,1.79-5,1.79-.66,0-1.41-.04-2.25-.13-1.67-.17-2.79-.25-3.38-.25l-2.6.23ZM280.01,47.73c1.14.11,2.05.17,2.75.17,1.03,0,1.65-.01,1.88-.04.23-.04.45-.15.65-.31.19-.18.38-.4.54-.67.36-.63.54-1.29.54-2s-.12-1.33-.35-1.88c-.24-.54-.56-1-.98-1.38-.85-.76-1.92-1.15-3.21-1.15-.61,0-1.19.1-1.73.31-.03.5-.05.89-.06,1.15,0,.25-.01.48-.02.69v5.1ZM287.07,50.81c-.42-.53-.93-.95-1.54-1.27-.61-.32-1.19-.48-1.73-.48h-1.65c-.57,0-1.29.03-2.15.08v3.75c0,2.27.03,4.01.1,5.23.9.56,2.06.83,3.48.83,2.25,0,3.73-.8,4.44-2.42.22-.54.33-1.17.33-1.9s-.11-1.41-.33-2.06c-.22-.67-.54-1.26-.96-1.77Z"/>
  <path class="cls-2" d="M300.54,60.1c-.56,0-.83-.19-.83-.56,0-.29.18-.44.54-.44l.75.08c.57,0,.95-.24,1.15-.73.22-.55.33-1.67.33-3.33v-10.73c0-1.65-.08-2.69-.23-3.13-.16-.43-.33-.7-.52-.81-.2-.11-.44-.17-.73-.17l-.75.06c-.36,0-.54-.15-.54-.44,0-.38.27-.56.81-.56s.98.02,1.33.04c.34.02.7.04,1.06.08.93.07,1.67.1,2.21.1s1.11,0,1.71-.02c.61-.03,1.29-.05,2.04-.08,1.96-.08,3.32-.13,4.08-.13s1.19.05,1.27.15c.09.08.15.2.15.35s-.01.31-.02.46c0,.14-.01.29-.02.46-.02.24-.05.58-.1,1.04-.04.46-.1.77-.17.92-.07.16-.18.23-.31.23-.13,0-.22-.03-.27-.08-.04-.07-.11-.22-.21-.46-.08-.23-.24-.46-.46-.67-.21-.22-.54-.41-1-.56-.92-.26-2.6-.4-5.04-.4h-1.35c-.24,0-.39.04-.46.1-.07.07-.1.23-.1.48v6.38c1.21.14,2.21.21,3,.21h1.69c.33-.01.61-.05.83-.1.4-.07.69-.24.85-.52.34-.54.63-.81.83-.81.28,0,.42.15.42.44l-.54,2.15.06,1.15c0,.72-.18,1.08-.52,1.08-.29,0-.44-.19-.44-.58s-.02-.67-.06-.85c-.04-.19-.17-.34-.38-.46-.33-.17-1.13-.25-2.38-.25s-2.38.06-3.38.17v3.58c0,2.24.05,4.08.17,5.52.8.2,1.69.29,2.65.29s1.78-.03,2.46-.08c.69-.05,1.28-.16,1.77-.31.98-.29,1.71-.84,2.17-1.67.21-.36.41-.54.6-.54.21,0,.31.15.31.44,0,.11-.04.27-.1.46-.08.27-.2.66-.35,1.19-.16.52-.27.89-.35,1.13-.08.22-.18.4-.27.52-.16.21-.45.31-.9.31s-.88-.01-1.29-.02c-.41,0-.83-.01-1.29-.02-.53-.02-1.34-.06-2.44-.13-2.75-.13-4.36-.17-4.83-.13-.47.04-.83.07-1.08.08-.24.03-.47.05-.71.08-.22.03-.49.04-.81.04Z"/>
  <path class="cls-2" d="M325.79,59.87c-.52,0-1,.03-1.46.1-.45.08-.93.13-1.46.13s-.77-.17-.77-.5.24-.52.73-.52.83-.09,1.04-.27c.34-.3.69-.81,1.02-1.52s.65-1.36.94-1.98c.29-.63.61-1.34.98-2.17.38-.82.78-1.73,1.23-2.75.46-1.01.94-2.09,1.44-3.23,1.29-3,2.14-5.01,2.54-6.04.42-1.04.65-1.61.69-1.73.05-.11.1-.21.15-.31.14-.21.25-.31.33-.31.09,0,.17.02.23.04.07.03.14.08.21.15.15.2.3.48.44.85.15.38.35.89.6,1.54.26.64.56,1.37.9,2.19.33.82.69,1.7,1.06,2.65.38.93.75,1.86,1.13,2.79.39.93.76,1.84,1.1,2.73.36.88.69,1.67.98,2.38.86,2.11,1.41,3.38,1.65,3.79.25.41.46.69.63.85.25.24.61.35,1.1.35s.75.18.75.52-.32.5-.96.5c-.27,0-.5-.02-.71-.04-.2-.03-.39-.05-.58-.06-.58-.08-1.1-.13-1.56-.13l-2.92.23c-.67,0-1-.19-1-.56,0-.3.19-.46.56-.46l.9.1c.39,0,.64-.08.75-.25.13-.17.19-.38.19-.63,0-.47-.2-1.21-.6-2.21l-1.25-3.15h-8.4c-.25.61-.48,1.17-.69,1.67s-.4.99-.56,1.46c-.28.78-.42,1.39-.42,1.83s.07.75.23.96c.17.21.46.31.9.31l.92-.08c.36,0,.54.15.54.44,0,.38-.33.56-.98.56l-2.52-.23ZM336.25,51.66l-3.6-9.02c-.7,1.77-1.94,4.77-3.73,9.02h7.33Z"/>
  <path class="cls-2" d="M358.21,40.35l-.73-.06c-.61,0-1.03.34-1.25,1.02-.2.58-.29,1.61-.29,3.08v7.48c0,1.41.09,2.41.29,3.02.21.61.49,1.17.85,1.67.38.5.81.93,1.31,1.29,1,.7,2.13,1.04,3.38,1.04s2.3-.15,3.13-.44c.82-.29,1.46-.73,1.94-1.33.9-1.09,1.35-2.88,1.35-5.33l-.02-7.4c0-1.48-.08-2.46-.23-2.92-.14-.46-.31-.77-.5-.94-.2-.17-.45-.25-.77-.25l-.73.06c-.36,0-.54-.15-.54-.44,0-.38.28-.56.83-.56s1.03.04,1.44.13c.42.07.85.1,1.31.1l2.5-.23c.64,0,.96.19.96.56,0,.29-.18.44-.54.44l-.73-.06c-.61,0-1.02.34-1.23,1.02-.17.58-.25,1.61-.25,3.08l-.02,8.17c0,2.25-.72,4.09-2.17,5.52-1.43,1.45-3.35,2.17-5.75,2.17-2.63,0-4.7-.72-6.21-2.17-1.54-1.48-2.31-3.55-2.31-6.21v-7.48c0-1.47-.08-2.44-.23-2.9-.14-.47-.31-.79-.52-.96s-.47-.25-.79-.25l-.73.06c-.38,0-.56-.15-.56-.44,0-.38.28-.56.83-.56s1.11.04,1.65.13c.54.07,1.1.1,1.69.1s1.17-.03,1.71-.1c.55-.08,1.11-.13,1.67-.13s.83.19.83.56c0,.29-.19.44-.56.44Z"/>
  <path class="cls-2" d="M385.29,60.1c-.66,0-.98-.19-.98-.56,0-.29.18-.44.54-.44l.73.08c.61,0,1.02-.34,1.23-1.02.18-.58.27-1.61.27-3.08v-14.17h-.42c-1.77,0-3.18.18-4.23.54-.72.27-1.22.72-1.48,1.35-.2.47-.4.71-.6.71-.29,0-.44-.17-.44-.52,0-.09.02-.21.06-.33.05-.14.11-.3.17-.48.15-.48.24-.99.27-1.52.04-.53.1-.88.19-1.04.08-.18.2-.27.35-.27s.28.02.4.04c.13.02.3.04.54.08.61.07,1.38.1,2.29.1h9.58c.75,0,1.29-.03,1.63-.1.34-.08.59-.13.75-.13.33,0,.5.16.5.46,0,.17-.04.36-.1.58-.14.5-.24.93-.29,1.29-.04.35-.08.64-.13.88-.04.22-.08.4-.13.52-.08.22-.21.33-.38.33-.16,0-.26-.05-.31-.17-.04-.11-.09-.33-.15-.67-.04-.33-.13-.6-.25-.81-.13-.22-.29-.4-.48-.52-.36-.22-.94-.33-1.73-.33h-3.25v14.17c0,1.52.06,2.49.19,2.94.14.45.3.75.5.92.21.17.47.25.79.25l.73-.08c.36,0,.54.15.54.44,0,.38-.33.56-.98.56-.33,0-.68-.03-1.04-.08-1.22-.19-2.27-.23-3.13-.1-.86.13-1.45.19-1.77.19Z"/>
  <path class="cls-2" d="M410.33,60.1c-.66,0-.98-.19-.98-.56,0-.29.18-.44.54-.44l.75.08c.59,0,1-.34,1.21-1.02.18-.58.27-1.61.27-3.08v-5.31l-4.77-7.02c-.64-.94-1.09-1.53-1.35-1.77-.43-.38-.87-.56-1.31-.56s-.67-.18-.67-.54c0-.14.07-.26.23-.35.17-.11.42-.17.77-.17s.73.04,1.1.13c.39.07.8.1,1.25.1l2.46-.23c.65,0,.98.17.98.5s-.28.5-.83.5-.83.18-.83.54c0,.2.18.58.54,1.15l4.19,6.33,3.21-5.08c.65-1.03,1-1.65,1.04-1.85.05-.22.08-.38.08-.46,0-.42-.32-.63-.96-.63s-.94-.17-.94-.5.32-.5.98-.5c.36,0,.71.04,1.04.13.34.07.7.1,1.06.1s.71-.03,1.02-.1c.32-.08.65-.13,1-.13.71,0,1.06.18,1.06.52,0,.36-.24.54-.71.54s-.88.14-1.17.4c-.47.39-1.06,1.14-1.77,2.25l-4.33,6.5v5.52c0,1.52.07,2.49.21,2.94.14.45.3.75.5.92.19.17.45.25.77.25l.73-.08c.36,0,.54.15.54.44,0,.38-.32.56-.96.56-.33,0-.69-.03-1.06-.08-1.21-.19-2.25-.23-3.13-.1-.86.13-1.45.19-1.77.19Z"/>
  <path class="cls-2" d="M181.2,80.16c.14.1.23.24.27.42.04.18.02.35-.06.52-1.1,1.75-2.07,3.18-2.92,4.27-.85,1.1-1.58,1.94-2.19,2.52-.6.57-1.1.95-1.52,1.15-.41.21-.74.31-1,.31s-.45-.01-.58-.02c-.52-.14-.91-.46-1.17-.96-.25-.48-.42-.99-.5-1.52-.07-.53-.12-.93-.15-1.21-.04-.79-.14-1.32-.27-1.6-.14-.28-.24-.42-.31-.42h-.02c-.31,0-.8.43-1.48,1.27-.68.83-1.49,2.14-2.42,3.92-.93,1.78-1.9,4.09-2.9,6.96-.09.29-.3.44-.63.44h-.13c-.38-.08-.55-.31-.52-.69.03-.39.14-1.08.31-2.08.18-1,.43-2.21.73-3.63.31-1.41.66-2.92,1.04-4.56.38-1.65.76-3.32,1.15-5,.4-1.69.78-3.31,1.15-4.85.38-1.54.71-2.93,1-4.17.3-1.23.55-2.22.73-2.96.18-.75.27-1.13.27-1.15.53-2.11,1.11-4.03,1.75-5.75.64-1.72,1.27-3.11,1.9-4.17.63-1.05,1.18-1.63,1.67-1.71.39-.07.69.04.9.33.32.46.29,1.42-.08,2.88-.38,1.45-1.06,3.28-2.06,5.5-1,2.21-2.27,4.69-3.79,7.44-.41,1.71-.85,3.58-1.35,5.63-.49,2.03-.97,4.07-1.44,6.13-.47,2.06-.91,3.95-1.29,5.69.63-1.3,1.26-2.48,1.92-3.52.65-1.05,1.3-1.88,1.94-2.46.65-.58,1.27-.84,1.85-.77.5.07.86.32,1.1.75.23.43.4.9.48,1.4.08.49.13.85.13,1.08.07.83.18,1.45.33,1.83.17.39.32.6.48.63.05.03.21,0,.46-.08.26-.08.65-.34,1.17-.77.51-.43,1.19-1.17,2.04-2.23.84-1.07,1.88-2.59,3.08-4.56.09-.14.23-.23.42-.27.18-.04.35-.02.52.06ZM174.18,57.41c-.39.57-.91,1.58-1.56,3.04-.66,1.45-1.31,3.41-1.98,5.9,1.17-2.3,2.01-4.2,2.54-5.69.54-1.48.88-2.57,1-3.25Z"/>
  <path class="cls-2" d="M196.4,80.41c.17.07.28.19.33.35.05.17.05.33-.02.5-.43.89-.91,1.78-1.42,2.67-.52.89-1.06,1.71-1.63,2.46-.56.74-1.14,1.33-1.73,1.77-.58.44-1.18.67-1.77.67-.11,0-.24-.01-.38-.02-1.53-.31-2.48-2.36-2.85-6.17-.39.53-.84,1.12-1.35,1.77-.52.64-1.06,1.28-1.63,1.92-.08.1-.23.24-.44.44-.21.2-.45.35-.73.46-.28.11-.55.1-.81-.02-.55-.21-.82-.8-.79-1.79,0-.57.11-1.28.33-2.13.21-.84.52-1.69.92-2.54.4-.86.86-1.63,1.4-2.29.54-.67,1.15-1.11,1.81-1.33.4-.17.9-.19,1.5-.08.59.1,1.21.52,1.85,1.27.11.14.16.31.15.5,0,.18-.07.33-.21.44-.14.11-.31.16-.5.15-.18-.01-.33-.08-.44-.21-.54-.64-1.02-.94-1.42-.92-.41.03-.74.15-1.02.35-.5.38-.96.91-1.38,1.58-.41.68-.74,1.41-1.02,2.17-.27.75-.46,1.45-.58,2.1-.11.66-.15,1.13-.1,1.42.07-.04.15-.09.23-.17.08-.07.17-.16.25-.27.69-.76,1.32-1.51,1.9-2.25.57-.75,1.06-1.41,1.48-1.98.11-.15.21-.3.31-.46.11-.15.21-.28.29-.4.18-.22.42-.29.73-.21.29.07.45.27.48.58.07,1.49.19,2.68.35,3.58.17.91.35,1.58.56,2.02.21.45.4.75.58.92.18.16.32.23.42.23.43.1,1.13-.34,2.08-1.33.96-.98,2.07-2.8,3.35-5.44.09-.19.23-.32.4-.38.18-.05.34-.03.5.06Z"/>
  <path class="cls-2" d="M207.16,80.21c.17.1.26.24.29.42.03.18,0,.35-.08.5-.43.7-.98,1.47-1.65,2.31-.67.83-1.39,1.64-2.17,2.42-.78.77-1.55,1.4-2.31,1.9-.77.5-1.47.75-2.1.75-.28,0-.52-.05-.71-.15-.78-.33-1.21-1.15-1.29-2.46-.08-1.32.18-3.18.79-5.58.05-.18.16-.31.31-.4.17-.09.32-.13.48-.08.18.04.32.15.42.31.09.16.11.31.06.48-.36,1.46-.59,2.62-.69,3.48-.08.85-.1,1.49-.04,1.94.05.43.14.72.25.88.13.14.19.21.21.21.3.14.74.04,1.31-.29.57-.33,1.21-.82,1.92-1.46.71-.65,1.42-1.41,2.13-2.27.72-.86,1.38-1.76,1.96-2.69.11-.17.25-.26.42-.29.17-.04.33-.01.5.08ZM199.08,77.46c-.46-.01-.7-.14-.71-.38-.02-.25.08-.5.29-.75.22-.25.45-.42.69-.52.36-.11.63-.08.79.08.18.16.26.35.25.6-.02.25-.14.48-.35.69-.21.21-.53.3-.96.27Z"/>
  <path class="cls-2" d="M223.16,80.25c.17.08.28.22.35.4.07.17.05.33-.04.48-.43.95-.97,2-1.6,3.17-.63,1.17-1.29,2.34-2,3.52-.71,1.17-1.43,2.23-2.17,3.21-.72.97-1.43,1.76-2.13,2.35-.68.61-1.29.92-1.83.92-.17,0-.32-.04-.46-.1-.47-.18-.79-.62-.94-1.31-.16-.68-.14-1.66.06-2.94.32-2.3,1.16-5.57,2.52-9.79-.02,0-.03.01-.04.02h-.06c-.45.32-.99.66-1.65,1-.64.35-1.3.58-1.98.69-.68.11-1.33-.03-1.96-.44-.86-.63-1.3-1.48-1.33-2.58-.03-1.09.38-2.3,1.23-3.6.28-.4.64-.85,1.08-1.35.44-.51.91-.9,1.4-1.17.5-.28.94-.29,1.33-.04.21.11.36.31.46.58.11.28.1.7-.02,1.27-.11.57-.39,1.33-.81,2.29-.43.96-1.08,2.2-1.96,3.73.53.07,1.11-.07,1.77-.44.65-.36,1.23-.7,1.73-1.02.47-.32.86-.55,1.19-.71.32-.15.61-.13.9.08.25.21.35.47.31.77-.04.29-.09.52-.15.67-.75,2.38-1.33,4.35-1.75,5.94-.41,1.57-.68,2.83-.83,3.79-.14.96-.21,1.67-.21,2.15s.03.8.08.96c.07.15.1.24.1.27.28.04.84-.41,1.71-1.33.86-.92,1.88-2.31,3.06-4.17,1.19-1.88,2.44-4.18,3.73-6.92.09-.18.23-.3.4-.35.18-.05.34-.05.5.02ZM209.35,77.91c-.14.47-.18.87-.13,1.19.07.31.16.55.27.73.72-1.28,1.27-2.31,1.65-3.1.39-.8.65-1.42.77-1.85.14-.44.22-.76.25-.94-.25.14-.56.41-.94.79-.38.39-.74.86-1.1,1.42-.35.54-.6,1.14-.77,1.77Z"/>
  <path class="cls-2" d="M251.74,82.37c.25.43.18.99-.21,1.69-.39.7-1.06,1.45-2.02,2.27-.6.52-1.33,1.02-2.19,1.52.22.5.47.98.75,1.44.28.47.58.92.92,1.33.13.17.18.34.17.52-.02.18-.1.32-.27.44-.11.09-.24.15-.4.15-.21,0-.39-.08-.52-.25-.68-.89-1.29-1.91-1.81-3.04-1.06.5-2.15.9-3.27,1.21-1.11.3-2.13.44-3.04.42-.92-.02-1.59-.25-2.02-.71-1.17-1.28-.06-3.56,3.33-6.85.61-.59,1.17-1.17,1.69-1.73.51-.55.98-1.08,1.42-1.58-.02-1.63.1-3.18.35-4.67.25-1.42.69-2.49,1.31-3.23.63-.75,1.23-1.17,1.83-1.27.75-.11,1.3.18,1.65.85.34.7.26,1.78-.25,3.25-.52,1.47-1.7,3.32-3.54,5.54.01,1.1.11,2.24.31,3.44.19,1.2.5,2.37.92,3.52.68-.42,1.28-.84,1.81-1.27.61-.55,1.05-1.01,1.33-1.38.28-.36.45-.64.52-.83-.03.03-.08.04-.15.04-.16.07-.31.06-.48-.02-.16-.08-.27-.21-.33-.4-.07-.15-.07-.3,0-.46.08-.17.21-.28.4-.35.59-.21,1.03-.22,1.29-.04.26.17.43.32.5.46ZM245.91,74.75c-.07.39-.13.81-.17,1.27s-.08.95-.1,1.48c.89-1.19,1.53-2.2,1.92-3.02.39-.82.61-1.48.69-1.98.07-.5.06-.84-.02-1.04-.06-.08-.12-.13-.19-.13h-.06c-.32.04-.7.35-1.13.92-.43.57-.74,1.41-.94,2.5ZM238.82,88.46c.22.25.69.36,1.42.33.72-.03,1.57-.18,2.54-.46.97-.28,1.94-.65,2.9-1.1-.36-.98-.66-1.99-.88-3.02-.22-1.04-.37-2.09-.44-3.15-.71.78-1.47,1.58-2.29,2.4-1.1,1.06-1.9,1.93-2.4,2.63-.5.7-.8,1.24-.9,1.63-.08.39-.07.64.04.75Z"/>
  <path class="cls-2" d="M287.14,80.35c.14.11.21.26.21.44.01.18-.04.34-.15.48-2.91,3.41-5.2,4.79-6.9,4.15-1.21-.46-1.85-1.91-1.94-4.35-.25.46-.52.98-.81,1.56s-.53,1.06-.71,1.42c-.14.35-.28.66-.42.94-.13.27-.25.49-.38.67-.06.14-.18.34-.35.6-.17.27-.39.49-.65.69-.27.2-.57.25-.92.17-.41-.13-.71-.43-.92-.92-.21-.48-.33-1.02-.38-1.6s-.06-1.06-.06-1.44v-.83c0-.28,0-.53.02-.77-.79,1.14-1.56,2.32-2.29,3.54-.74,1.22-1.52,2.63-2.33,4.21-.28.53-.57.79-.9.79-.11,0-.21-.04-.29-.1-.13-.06-.23-.14-.31-.23-.09-.1-.15-.31-.17-.63-.01-.31.04-.78.15-1.42.1-.64.3-1.53.6-2.67.33-1.39.73-2.77,1.21-4.15.47-1.38.94-2.61,1.42-3.71.07-.18.19-.3.35-.38.18-.07.34-.05.5.04.19.07.32.19.38.35.05.17.05.33-.02.5-.61,1.43-1.17,2.93-1.67,4.5-.49,1.57-.87,2.94-1.15,4.1.71-1.26,1.4-2.44,2.08-3.52.69-1.08,1.42-2.14,2.17-3.17.07-.09.19-.22.35-.38.18-.17.42-.2.71-.1.29.11.45.33.48.65.04.32.05.86.04,1.63,0,.25-.01.52-.02.81-.02.29-.02.6-.02.92,0,.7.04,1.26.13,1.69.09.43.18.73.25.9.04-.05.1-.14.19-.25.08-.11.18-.26.29-.44.09-.17.21-.38.33-.65.13-.28.26-.57.42-.9.59-1.28,1.08-2.26,1.46-2.94.38-.69.7-1.17.98-1.42.28-.25.56-.34.85-.27.38.08.59.31.65.67.05.35.08.63.08.83-.03,1.07.05,1.94.25,2.6.19.67.47,1.07.83,1.21.42.16,1.07-.03,1.98-.54.9-.53,2.05-1.6,3.44-3.23.13-.14.28-.21.46-.23.18-.01.34.04.48.17Z"/>
  <path class="cls-2" d="M302.34,80.41c.17.07.28.19.33.35.05.17.05.33-.02.5-.43.89-.91,1.78-1.42,2.67-.52.89-1.06,1.71-1.63,2.46-.56.74-1.14,1.33-1.73,1.77-.58.44-1.18.67-1.77.67-.11,0-.24-.01-.38-.02-1.53-.31-2.48-2.36-2.85-6.17-.39.53-.84,1.12-1.35,1.77-.52.64-1.06,1.28-1.63,1.92-.08.1-.23.24-.44.44-.21.2-.45.35-.73.46-.28.11-.55.1-.81-.02-.55-.21-.82-.8-.79-1.79,0-.57.11-1.28.33-2.13.21-.84.52-1.69.92-2.54.4-.86.86-1.63,1.4-2.29.54-.67,1.15-1.11,1.81-1.33.4-.17.9-.19,1.5-.08.59.1,1.21.52,1.85,1.27.11.14.16.31.15.5,0,.18-.07.33-.21.44-.14.11-.31.16-.5.15-.18-.01-.33-.08-.44-.21-.54-.64-1.02-.94-1.42-.92-.41.03-.74.15-1.02.35-.5.38-.96.91-1.38,1.58-.41.68-.74,1.41-1.02,2.17-.27.75-.46,1.45-.58,2.1-.11.66-.15,1.13-.1,1.42.07-.04.15-.09.23-.17.08-.07.17-.16.25-.27.69-.76,1.32-1.51,1.9-2.25.57-.75,1.06-1.41,1.48-1.98.11-.15.21-.3.31-.46.11-.15.21-.28.29-.4.18-.22.42-.29.73-.21.29.07.45.27.48.58.07,1.49.19,2.68.35,3.58.17.91.35,1.58.56,2.02.21.45.4.75.58.92.18.16.32.23.42.23.43.1,1.13-.34,2.08-1.33.96-.98,2.07-2.8,3.35-5.44.09-.19.23-.32.4-.38.18-.05.34-.03.5.06Z"/>
  <path class="cls-2" d="M317.83,80.31c.14.08.23.22.27.42.04.18.02.34-.06.48-.57.93-1.31,1.91-2.21,2.94-.91,1.03-1.87,1.99-2.9,2.9-1.03.91-2.06,1.64-3.08,2.21-1.03.57-1.96.85-2.79.85-.18,0-.35-.01-.5-.02-.38-.07-.77-.27-1.19-.6-.41-.33-.68-.93-.83-1.77-.06-.22-.01-.42.15-.6.17-.19.42-.44.77-.73.28-.22.58-.49.92-.81.33-.32.65-.67.94-1.04.46-.61.76-1.17.9-1.69.14-.51.18-.88.13-1.08-.11.04-.34.22-.69.52-.33.29-.79.89-1.35,1.77-.7,1.03-1.31,2.18-1.85,3.46-.53,1.26-1.02,2.55-1.48,3.88-.46,1.33-.86,2.6-1.23,3.81l-.17.48c-.09.29-.3.44-.63.44h-.1c-.39-.07-.57-.3-.54-.69,0-.18.08-.7.25-1.56.17-.85.4-1.95.69-3.29.29-1.33.62-2.81.98-4.44.35-1.64.72-3.32,1.1-5.04.4-1.72.79-3.41,1.17-5.06.38-1.67.72-3.19,1.04-4.58.03-.04.04-.09.04-.17.42-1.72.73-3.06.96-4.02.53-2.09,1.11-4.01,1.75-5.73.64-1.73,1.27-3.11,1.9-4.15.64-1.04,1.21-1.63,1.71-1.75.36-.05.66.08.9.4.32.43.28,1.37-.1,2.81-.38,1.43-1.06,3.26-2.06,5.48-1,2.21-2.26,4.69-3.77,7.44-.35,1.42-.72,2.97-1.1,4.65-.39,1.67-.78,3.37-1.17,5.1-.39,1.74-.75,3.4-1.08,4.98.25-.55.51-1.09.79-1.63.29-.54.58-1.05.88-1.52,1.3-2.01,2.43-2.98,3.38-2.92.47.04.8.29.98.75.23.49.23,1.13,0,1.92-.22.78-.61,1.54-1.17,2.27-.32.41-.66.78-1.02,1.13-.36.35-.7.65-1,.9-.07.07-.15.14-.23.21-.07.07-.13.13-.17.17.08.39.21.65.4.79.18.14.34.21.48.23.5.09,1.17-.06,2-.46.84-.4,1.75-.99,2.71-1.77.97-.78,1.94-1.68,2.9-2.71.97-1.04,1.81-2.15,2.52-3.31.08-.17.21-.26.4-.29.18-.04.35-.01.52.08ZM311.6,57.56c-.39.57-.91,1.58-1.56,3.04-.66,1.45-1.3,3.41-1.94,5.9,1.14-2.3,1.97-4.2,2.5-5.69.54-1.48.88-2.57,1-3.25Z"/>
  <path class="cls-2" d="M330.34,80.37c.17.1.26.24.27.42.03.18-.01.34-.1.48-1.35,1.88-2.58,3.43-3.71,4.65-1.11,1.22-2.23,2.23-3.35,3.02-.83.59-1.67.9-2.5.9-.64,0-1.2-.17-1.67-.5-.32-.24-.63-.65-.94-1.23-.32-.58-.48-1.42-.5-2.52-.03-1.11.24-2.57.81-4.38v-.04c.68-2.19,1.48-3.86,2.42-5.02.93-1.15,1.72-1.74,2.38-1.77.53-.01.88.22,1.04.69.25.67-.05,1.61-.9,2.83-.85,1.22-2.09,2.52-3.73,3.9-.52,1.6-.76,2.85-.73,3.75.03.91.15,1.56.38,1.96.23.39.42.65.56.77.68.5,1.55.36,2.63-.42,1.05-.73,2.11-1.69,3.19-2.85,1.07-1.18,2.25-2.67,3.54-4.48.11-.14.26-.22.44-.25.18-.04.34,0,.48.1ZM323.21,75.81c-.25.17-.6.51-1.04,1.02-.43.52-.88,1.27-1.33,2.25.83-.8,1.42-1.48,1.75-2.04.34-.57.55-.98.63-1.23Z"/>
  <path class="cls-2" d="M341.24,81.6c.07.17.07.34,0,.52-.06.17-.16.29-.31.38-.07.03-.16.05-.27.06h-6.21c-.5,0-.82.02-.96.04h-.06c-.39,0-.61-.19-.67-.58-.02-.18.03-.34.15-.48.11-.15.26-.24.44-.27.21-.03.72-.04,1.54-.04s1.84.02,3.08.04h2.58c.32-.07.55.04.69.33Z"/>
  <path class="cls-2" d="M359.01,80.62c.14.08.23.22.27.42.05.18.03.33-.06.46-.18.31-.47.77-.88,1.4-.41.61-.89,1.29-1.44,2.04-.56.74-1.16,1.45-1.79,2.15-.63.7-1.24,1.27-1.85,1.73-.61.46-1.18.69-1.71.69-.18,0-.34-.04-.48-.1-.57-.21-.93-.74-1.08-1.58-.16-.84-.1-2.07.15-3.67-.29.39-.61.79-.96,1.21-.33.41-.7.78-1.08,1.13-.6.5-1.1.71-1.52.63-.41-.09-.68-.21-.81-.35-.42-.34-.67-.86-.77-1.56-.11-.69-.07-1.46.1-2.31.17-.86.48-1.69.94-2.5.08-.15.21-.25.4-.29.19-.05.36-.03.52.06.17.08.27.22.31.4.04.17.02.33-.06.48-.42.7-.7,1.39-.83,2.06-.14.67-.18,1.24-.13,1.73.07.47.18.78.33.92.09.07.21.06.35-.04.15-.11.25-.18.29-.21.44-.39.86-.83,1.25-1.33.39-.5.71-.96.98-1.38.38-.5.68-.86.92-1.1.23-.23.51-.29.83-.17.32.13.48.39.48.77s-.06.91-.17,1.56c-.22,1.33-.33,2.31-.31,2.92.03.6.08.99.17,1.17.09.17.16.25.19.25.26.11,1.01-.43,2.25-1.63,1.23-1.21,2.67-3.11,4.29-5.71.09-.17.23-.26.42-.29.18-.04.34-.01.5.08Z"/>
  <path class="cls-2" d="M367.27,75.31c.68.21,1.13.75,1.35,1.63.23.88.21,1.9-.08,3.06-.35,1.27-.93,2.36-1.75,3.29-.81.93-1.57,1.7-2.29,2.29-.89.74-1.88,1.38-2.96,1.92-.36,1.44-.74,3.05-1.13,4.81-.39,1.78-.78,3.59-1.17,5.46-.39,1.86-.75,3.67-1.08,5.44-.34,1.78-.66,3.42-.94,4.92-.29,1.5-.52,2.75-.69,3.75-.07.36-.28.54-.65.54h-.1c-.18-.02-.32-.1-.42-.25-.11-.16-.15-.32-.13-.5.18-1.31.43-2.85.73-4.63.29-1.78.62-3.7.98-5.77.35-2.07.71-4.2,1.08-6.38.38-2.17.76-4.3,1.15-6.4-.28.09-.55.18-.83.25-.18.05-.34.03-.5-.06-.17-.08-.27-.22-.31-.4-.04-.18-.01-.34.08-.5.08-.17.22-.27.4-.31.46-.13.93-.28,1.4-.48.13-.63.24-1.23.35-1.81.11-.59.21-1.18.31-1.75.32-1.8.61-3.46.88-4.98.28-1.53.5-2.78.67-3.77.18-1,.27-1.57.27-1.71,0-.42.2-.63.6-.65.19-.03.35.02.48.15.14.13.22.28.25.46,0,.04-.02.2-.06.48-.03.28-.1.74-.21,1.38-.11.64-.28,1.56-.5,2.77-.22,1.21-.5,2.78-.83,4.71.61-1.76,1.21-3.14,1.79-4.13.58-1,1.13-1.71,1.63-2.13.5-.43.94-.67,1.31-.73.39-.05.69-.05.92.02ZM367.27,79.66c.22-.9.27-1.63.15-2.17s-.3-.84-.52-.92c-.03-.03-.06-.04-.1-.04-.18,0-.47.17-.88.5-.41.33-.88.95-1.42,1.85-.53.91-1.09,2.23-1.69,3.98-.22.7-.49,1.66-.81,2.88,1.23-.75,2.34-1.65,3.31-2.69.98-1.05,1.64-2.19,1.96-3.4Z"/>
  <g class="cls-5">
    <path class="cls-3" d="M35.05,99.91s.01.01.02.01c.02,0,.04-.02.04-.04,0-.01,0-.02-.01-.03-2.48-1.78-4.92-3.66-7.31-5.61-2.15-1.76-4.32-3.58-5.48-5.95-.02-.03-.04-.04-.07-.03-.01,0-.03.01-.04.02-.03.01-.04.03-.03.06,1.35,2.91,3.69,5.12,6.43,7.11,2.03,1.47,4.18,2.97,6.46,4.47M11.07,86.39c-1.16-5.6,1.65-11.38,5.89-14.93,1.83-1.54,3.82-2.82,5.96-3.84.02-.01.03-.02.03-.04,0-.03-.02-.04-.05-.04h0c-8.68,3.1-14.29,9.65-11.83,19.46.04.15.09.29.18.41.08.11.11.1.09-.04l-.11-.9s-.01-.03-.03-.03h-.05s-.06-.02-.07-.06ZM71.26,71.98c1.99-.03,3.84,0,5.55-.63,3.18-1.19,5.28-4.19,5.68-7.52.07-.59.3-2.74.09-2.91-.05-.04-.07-.03-.07.03-.36,5.63-3.33,9.46-9.15,9.9-3.69.28-6.32.31-9.27,1.92-.2.11-.19.13.02.05,1.39-.49,2.5-.74,3.34-.77,1.27-.04,2.54-.06,3.81-.08ZM35.45,57.56c-1.21,2.7-4.47,3.84-7.22,4.35-7.9,1.48-19.18,2.36-18.65,13.75,0,.02,0,.03.01.04,0,0,.01,0,.02.01.02.02.03.02.03-.02.37-10.6,11.28-10.55,18.86-12.27,2.89-.66,5.53-2.35,6.81-5.11.11-.23.18-.48.21-.73.02-.16,0-.16-.07-.02ZM29.53,54.83c.29-1.42.93-5.27-.17-5.91-.07-.04-.09-.02-.09.05.15,1.73-.03,3.42-.51,5.08-.01.03-.03.04-.05.04-.03,0-.06-.03-.06-.05h0c.27-1.75.31-3.5.15-5.26,0-.08-.06-.13-.13-.13-.28-.02-.54.09-.79.33-1.07,1.03-1.66,2.22-1.77,3.58-.14,1.86.84,3.67,1.04,5.55,0,.05.04.07.08.05,1.79-.78,3.94-2.56,4.32-4.6.26-1.42-.68-3.58-1.3-4.85-.08-.17-.1-.17-.06.02.06.23.2.44.22.67.19,1.89-.09,3.71-.84,5.45-.07.16-.08.15-.05-.02ZM22.99,52.72c-1.28,1.28,1.2,2.52,1.6.08.31-1.86,1.14-3.46,2.49-4.79.05-.04.04-.08-.03-.09-.41-.09-3.44,4.18-4.07,4.81ZM37.01,52.98c-.09,0-.17-.02-.22-.04-2.57-1.13-4.69-2.82-6.36-5.07-.06-.08-.09-.08-.1.03,0,.2.05.43.17.67.81,1.63,1.45,3.83,2.38,5.2,1.9,2.8,4.29,3.2,7.46,3.47.08,0,.14.07.14.16v.03c-2.02,9.58-13.38,13.26-21.17,16.68-4.65,2.04-7.67,5.36-8.22,10.57-.05.47,0,.98.17,1.53.02.04.03.04.03,0,.17-2.45.99-4.59,2.46-6.4,1.7-2.09,4.35-3.6,6.93-4.49,4.24-1.46,6.76-2.3,9.86-4.09,5.04-2.91,9.62-7.75,10.36-13.73,0-.07.05-.09.11-.06l.54.24c.06.03.1.01.1-.06.31-4.1.7-7.28-2.57-9.68-2.49-1.83-5.32-2.17-8.49-1.03-.03.01-.05.04-.05.07,0,.02,0,.03.01.05,1.66,2.52,3.63,4.57,6.47,5.9.1.05.1.07-.02.06ZM30.04,47.22c0-.66-.54-1.19-1.2-1.19s-1.19.54-1.19,1.19.54,1.2,1.19,1.2,1.2-.54,1.2-1.2ZM17.34,47.54c2.49-.43,5.04-.78,7.64-1.06.95-.1,1.69-.1,2.2,0,0,0,0,0,.01,0,0-.02,0-.04.01-.06.02-.03,0-.06-.04-.06-2.12-.46-4.27-.74-6.43-.86-.1-.01-.1-.02,0-.03,1.89-.24,4.05.2,5.95.32.07,0,.08-.02.04-.07-1.35-1.41-2.95-2.22-4.94-2.44-3.8-.41-6.22,1.28-8.81,3.8-.05.05-.04.08.02.11,3.17,1.61,4.66,4.15,8.35,3.06,2.18-.65,3.52-2.75,5.82-3.22.15-.03.15-.05,0-.07-.5-.06-1.09.03-1.49.04-2.72.1-5.5.31-8.32.61-.02,0-.04-.01-.04-.03,0-.01.01-.03.03-.03ZM36.72,41.58c-.47-.04-.88.11-1.21.45-1.66,1.67-2.69,2.69-4.43,3.88-.21.14-.2.17.04.07,1.12-.44,2.29-1.32,3.21-1.95.91-.63,1.63-.85,2.67-.98.06,0,.11-.03.16-.08.51-.56.47-1.32-.43-1.39ZM40.38,41.97c-.24.12-.51.16-.79.13-.01,0-.02,0-.04,0-.17,0-.32.14-.32.32,0,.04,0,.07.02.1.21.6.54.99.99,1.18,1.94.82,3.02-1.49,1.94-2.85-.91-1.15-3.04-.72-2.89,1.01,0,.06.04.08.09.08l.98-.04c.11,0,.11.02.02.07ZM20.49,39.64c.65.55,5.72,5.47,6.1,5.16.05-.04.04-.07,0-.1-2.36-1.57-3.36-3.15-4.6-5.7-.8-1.66-3.08-.71-1.49.65ZM17.89,35.31c-10,4.73-13.74,15.14-11.5,25.55.1.45.36,1.5.81,3.14.02.07.03.07.04,0,0-.04,0-.08,0-.11-.55-2.8-.58-5.69-.3-8.57.73-7.7,4.46-15.47,10.99-19.96.16-.1.15-.11-.03-.04ZM32.11,35.32c.25-.04.69-.62.77-.87.03-.06,0-.08-.06-.07-.16.02-.54.72-.66.89-.02.02-.05.04-.07.04-.05,0-.09-.04-.09-.09v-.02l.6-3.11s0,0,0-.01c0-.04-.03-.07-.07-.07,0,0-.01,0-.02,0-.14.05-.56,2.72-.61,3.09v.03c0,.1.08.19.19.19.01,0,.02,0,.03,0ZM31.8,31.03l.13-.04s.07-.04.09-.08c.15-.38.35-.72.62-1.03.21-.25.23-.23.08.05-.18.32-.35.65-.53.96-.03.06-.03.1,0,.16l.49.74c.04.06.08.06.13,0,.11-.14.24-.19.42-.18.07.01.14,0,.2-.05.48-.35.76-.82.84-1.4.01-.06,0-.13-.03-.18-.41-.82-1.22-1.63-2.2-1.54-2.32.21-2.12,3.28.22,3.4.14,0,.21-.05.23-.18,0-.07-.02-.12-.07-.16l-.64-.43s-.03-.04,0-.05ZM39.22,31.4c.18-1.23.38-2.48.6-3.75.03-.16-.04-.21-.18-.15-1.9.8-2.34,2.49-2.56,4.42-.01.06-.04.11-.09.15-1.08.65-2.21,1.23-3.15,2.04-.58.49-1.15,1.01-1.69,1.54-.03.03-.06.04-.09.04-.05,0-.09-.02-.11-.06-1.17-1.73-3.04-3.05-4.82-4.09-.05-.03-.1-.03-.15.03-2.33,2.55-3.78,5.22-2.7,8.78.6,2.02,2.04,4.41,3.99,5.47.18.09.24.05.21-.16-.6-3.49-.65-6.98-.14-10.49,0-.02.01-.02.02-.01.02.01.03.02.03.04-.06,3.4.08,6.82,1.13,10.1.01.03.03.04.06.04s.06-.02.06-.05h0c0-.23-.01-.43.06-.66.29-1.01.49-1.96.61-2.86.15-1.19.28-2.6.38-4.21.03-.31.04-.31.05,0,.07,2.4-.18,4.58-.68,6.93-.02.08.01.11.09.08.09-.03.19-.03.28,0,.08.04.1.08.06.16l-.11.18s0,.02,0,.03c0,.04.03.06.06.06.01,0,.02,0,.03,0,3.1-1.92,3.43-4.82,2.18-8.03-.05-.12-.03-.27-.03-.4,0-.03,0-.03.03-.01.01.01.02.03.03.04.02.03.05.03.08.01,1.56-1.1,2.88-2.05,4.59-2.58.06-.02.09,0,.13.05.3.54.99,1.89.9,2.48-.01.06.02.07.06.05.39-.17,1.19-.52,2.41-1.03,3.92-1.66,3.11-6.36.03-8.27,0,0-.02,0-.02,0-.04,0-.06.02-.07.05,0,0,0,.02,0,.02.45,1.37.66,2.73.23,4.15-.2.66-.43,1.56-.82,2.23-.2.34-.22.33-.06-.04.88-1.98,1.25-3.4.6-5.38-.11-.33-.12-.6-.43-.84-.02-.02-.05-.03-.08-.03-.06,0-.11.04-.13.09-.35,1.28-.63,2.57-.84,3.88-.18,1.08-.19,1.08-.04.01ZM33.75,28.2c2.06,1.17,3.26-.15,4.95-1.03.08-.05.07-.07-.02-.06-1.16.02-2.29-.11-3.41-.38-.45-.11-.78-.14-.99-.09-.63.15-1.36,1.09-.53,1.56ZM42.88,27.82s.01-.03.02-.05c.02-.07.06-.08.12-.05.61.32,1.27.44,1.96.36,2.35-.27,4.41-1.19,6.16-2.78.05-.04.04-.07-.02-.1-.04-.02-.07,0-.1.03-2.1,1.99-5.28,3.22-8.17,2.3-.07-.02-.19-.02-.34.02-.06.01-.11,0-.16-.03-.36-.24-.76-.43-1.18-.57-.2-.07-.21-.04-.05.09,1.05.77,2.01,1.65,2.86,2.62.34.4.61.64.82.73,1.72.8,2.15-1.06.69-1.5-.88-.27-1.74-.6-2.57-.99-.03-.02-.04-.04-.03-.07ZM52.32,24.46s.01-.06.01-.09c0-.18-.12-.33-.29-.38l-.21-.05s-.06-.01-.09-.01c-.18,0-.33.12-.37.29l-.06.25s-.01.06-.01.09c0,.18.13.33.29.37l.21.05s.06.01.09.01c.17,0,.33-.13.37-.29l.06-.25ZM44.73,25.73c-.82.35-1.68.51-2.58.48-.06,0-.08.03-.06.08.05.14,2.91.13,3.24.08.03,0,.05,0,.07,0,.03,0,.05.02.07.04.04.04.03.06-.02.07-1.27.26-2.55.3-3.83.09-.07-.01-.14,0-.19.04s-.04.06.02.07c.23.04.57.14,1.04.3,2.42.83,6.84-1.02,7.74-3.55,0-.01,0-.03,0-.04,0-.05-.04-.1-.09-.1-1.34-.11-2.66-.04-3.97.2-1.71.31-2.88,1.23-4.2,2.43-.02.02-.02.03.01.03.92,0,1.83-.1,2.72-.28.2-.04.2-.02.02.06ZM47.89,35.64c8.78.43,17.39-3.21,18.89-12.85,0-.02-.02-.04-.04-.04-.02,0-.03.01-.04.03-1.45,8.02-10.35,12.48-17.73,12.65-.68.02-1.36.04-2.05.09-.17,0-.17.03,0,.04.32.04.65.07.97.08ZM64.8,20.39c-.51,6.55-7.13,9.45-12.52,11-.24.07-.24.08.01.05,5.15-.83,10.04-3.05,12.06-8.22.17-.44.76-2.52.49-2.84-.03-.04-.04-.03-.05.01ZM42.84,20.42c-.73,1.14-1.34,2.35-1.82,3.62-.09.24-.05.46-.22.74-.35.56-.32.57.08.05.64-.81,1.4-1.45,2.04-2.27.04-.06.06-.05.05.03,0,.01-.01.03-.01.05,0,.03-.03.07-.06.1-.65.72-1.23,1.49-1.78,2.3,0,.01-.01.03-.01.04,0,.04.03.09.07.09.01,0,.03,0,.04-.01,2.24-.89,4.31-2.34,4.68-4.97.13-.91.25-1.82.38-2.73,0-.06-.02-.09-.08-.09-2.95.14-4.89,1.6-5.83,4.39-.38,1.13-.48,2.26-.31,3.39.01.08.03.08.06,0,.58-1.77,1.47-3.35,2.69-4.77.14-.16.15-.15.04.03ZM36.81,20.65c.84,1.76,1.78,3.47,2.79,5.14.05.08.07.08.05-.02-.11-.5-.24-.9-.22-1.42.11-2.64-.45-4.84-2.81-6.37-.73-.48-1.67-.91-2.07-1.7-.04-.08-.08-.08-.13-.01-2.8,3.83-2.24,10.11,3.63,10.44.1,0,.12-.03.05-.11-1.71-1.92-2.79-4.16-3.24-6.69-.04-.2-.01-.21.06-.02.88,2.36,2.11,4.94,4.17,6.33.07.05.09.03.06-.05-.15-.35-.21-.72-.37-1.06-.26-.56-2.04-4.16-1.98-4.46,0-.03.01-.03.03,0ZM37.77,6.29C20.44,11.12,7.33,25.44,2.98,42.69c-.32,1.28-.57,2.2-.74,2.76-.48,1.54-.45,1.55.08.03,3.81-10.89,11.11-19.97,22.57-23.15.06-.02.11-.07.14-.13,2.6-6.3,6.98-12.11,12.78-15.82.01,0,.02-.02.02-.02.01-.03,0-.05-.03-.06-.01,0-.02,0-.03,0ZM67.65,32.83s-.03-.03-.03-.04c0-.03.01-.05.04-.05.74-.05,1.27-.12,1.59-.22,1.29-.39,2.92-1,4.08-1.04,1.9-.07,3.69,1.17,4.96,2.46.64.65.76,1.55-.21,1.96-.06.03-.11.02-.17-.02-1.9-1.25-3.1-3.36-5.71-3.05-1.46.17-3.15.52-4.55-.02ZM68.38,37.46c1.56.89,3.16,1.7,4.79,2.45.25.08,1.56.49,1.65.66.05.08.04.14-.05.18l-.17.08c-.14.07-.13.1.02.11.53.04,1.03-.02,1.53-.18.15-.05.17-.02.06.09-.22.21-.46.36-.76.43-.06.02-.1.05-.14.09-.07.09-.15.13-.25.13-.24,0-.26.07-.07.2.2.16.44.24.71.25.03,0,.04.02.03.05-.01.02-.01.03-.02.04,0,.01,0,.02-.02.02l-.97.15c-.06.01-.13,0-.19-.02l-.49-.17c-.12-.04-.17,0-.15.13l.06.36c.02.08-.02.1-.09.05-.2-.14-.05-.47-.43-.56-.08-.02-.11.02-.08.09l.11.31c.03.08.01.09-.06.05-.25-.15-.16-.58-.51-.56-.12,0-.15.06-.08.15.04.05.04.1,0,.16-.06.07-.1.06-.15-.02l-.22-.46c-.05-.1-.1-.11-.16-.02l-.27.36c-.11.15-.16.13-.14-.05.01-.13.05-.26.13-.37.05-.08.04-.14-.06-.17l-.15-.05c-.06-.01-.1,0-.13.05-.09.14-.24.16-.46.07h0s-.07-.06-.05-.11c.08-.2.01-.34-.21-.43-.08-.03-.13,0-.15.08-.02.1-.07.17-.15.19-.06.02-.09,0-.1-.07l-.07-.55c-.02-.12-.08-.15-.19-.09l-.26.14c-.1.05-.16.03-.16-.09v-.41c0-.07-.04-.1-.1-.09l-.34.05c-.05,0-.08-.02-.07-.07l.02-.31c0-.07-.03-.09-.09-.06l-.18.07c-.13.05-.16.02-.1-.1l.09-.21c.05-.13.02-.17-.11-.14l-.22.05c-.09.02-.13-.02-.12-.1l.04-.26c.02-.08-.02-.13-.11-.13h-.17c-.11,0-.15-.05-.09-.14.08-.15.04-.23-.15-.24-.08,0-.12-.05-.09-.14.03-.11,0-.18-.08-.22-.05-.03-.09-.06-.13-.1l-.7-1.04c-.05-.07-.04-.09.05-.06l1.18.47ZM49.11,43.44l-.13.02s0,0-.01,0t.01,0l.13-.02ZM75.27,50.34c-.61-.56-.68-1.17-.19-1.85.07-.1.1-.09.08.04-.14.84.18,1.49,1.02,1.56.81.07,1.86-1.03,2.45.28.03.07.01.11-.07.13-.56.11-2.7.38-3.3-.16ZM64.76,98.58c2.32,1.56,6.25,4.51,5.47,7.81-.13.56-1.9,1-2.43,1.19-.06.02-.1,0-.11-.07-.05-.28.03-.59.03-.81-.07-2.85-1.45-5.77-3.01-8.07-.07-.09-.06-.11.04-.05ZM61.97,63.14c2.38,1.05,4.43,1.87,6.14,2.46,2.42.83,4.83,0,5.05-2.85.14-1.76-.26-2.56,1.76-3.04.38-.09.76-.22,1.13-.38-2.21-.12-3.84-1.51-4.8-3.42-.03-.07-.01-.09.06-.08,1.94.41,4.06-.62,5.44-1.22.57-.25,1.09-.15,1.55.29-.36-1.17-.91-1.83-.46-3.11.05-.15.17-.26.31-.29,1.04-.27,2.8-.63,2.85-1.92.03-.56-.41-1.17-.71-1.63-1.2-1.86-1.96-3.97-2.13-6.08-.13-1.7.86-3.59,1.54-5.17.99-2.28,1.38-4.71,1.15-7.29-.43-4.79-3.7-8.95-8.9-8.57-2.12.16-2.36,1.27-2.92,3.21-.18.63-.36,1.27-.55,1.9-1.51,5.3-5.99,9.2-11.09,10.89-1.84.61-3.82,1.1-5.95,1.46.4.85.55,1.7.46,2.56-.09.94-1.39-.16-1.71-.52-.65-.73-1.09-1.2-1.35-1.4-3.34.44-.93,3.49.28,4.52.59.46,1.26.78,1.99.95.72.16-.18.42-.4.41,1.04,1.03,1.85,1.97,2.48,2.85,1.37,1.94,1.81,5.31-.37,6.95-3.2,2.4-6.07-2.79-2.87-4.43.01-.01.03-.01.03-.01.03,0,.06.03.06.06,0,.01,0,.03-.02.04-.9.79-1.26,2.05-.72,3.14.57,1.13,1.97,1.27,2.95.61,1.55-1.03,1.14-3.32.22-4.63-1.19-1.68-2.97-2.93-4.54-4.24-.9-.75-1.65-1.53-2.41-2.39-.04-.05-.07-.04-.08.03-.27,2.49-.17,4.98.29,7.44.56,2.97,1.15,5.7,1.11,8.93-.08,9.61-5.58,16.03-14.6,18.67-2.02.59-4.06,1.16-6.11,1.68-1.18.3-2.42.85-3.71,1.65-4.36,2.71-4.68,7.79-1.66,11.64,0,.01.03.02.04.02.03,0,.05-.02.05-.05,0,0,0-.02,0-.03-2.31-3.68-2.08-7.67,1.55-10.32,4.08-2.99,9.93-3.1,14.71-1.9,5.15,1.29,9.78,4.04,13.78,7.44,6.25,5.33,12.2,12.22,15.59,19.76.01.02.02.05.02.07,0,.07-.05.14-.12.16-3.95,1.13-7.98,1.76-12.09,1.9-.04,0-.08-.03-.08-.07-.23-4.18-1.8-7.76-4.7-10.74-2.28-2.34-4.74-4.3-7.39-5.86-.53-.31-.53-.3-.02.04,5.67,3.73,11.13,9.39,11.61,16.58,0,.07-.02.1-.09.1h-.92c-.07,0-.13-.04-.16-.11-1.86-4.45-6.89-8.08-10.97-10.84-4.62-3.12-9.35-6.07-14.19-8.83-1.47-.84-3.08-1.9-4.64-2.83-.51-.31-.52-.3-.03.04,4.66,3.16,9.31,6.33,13.95,9.52,3.06,2.1,5.97,4.39,8.73,6.87,1.78,1.6,3.66,3.65,4.43,5.96.04.12,0,.17-.13.16-15.77-1.45-29.7-9.57-38.72-22.48-1.33-1.92-2.91-4.35-4.04-6.5C1.39,70.22-.38,58.92,1.64,46.93,5.33,24.9,21.47,6.29,43.72,1.48c9.92-2.14,19.9-1.02,27.9,5.54.01.01.02.02.02.04,0,.02-.02.04-.04.04-4.26.48-8.31,2.17-11.83,4.56-.11.07-.1.08.02.04.8-.33,1.6-.65,2.42-.96,7.58-2.93,16.24-2.8,22.01,3.63,3.93,4.38,4.7,10.38,2.66,15.89-1.1,2.97-2.8,5.62-4.32,8.38-1.93,3.49-1.13,7.51,1.98,9.99,2.92,2.33,6.08,4.43,6.08,8.67,0,1.38-.32,2.69-.98,3.96-.08.16-.11.16-.08-.03.09-.59.22-1.22.24-1.74.18-4.25-2.96-5.69-6.26-7.1h-.03s-.06.03-.06.06c0,.02,0,.03.02.04,1.26,1.44,2.36,2.99,3.32,4.68,3.78,6.65,1.6,15.98-7.38,16.34-.11,0-.13-.03-.05-.11,4.02-3.73,4.86-9.27,3.03-14.31-.03-.07-.04-.07-.04.01-.03.82.52,1.66.51,2.59-.02,5.48-2.65,11.36-8.88,11.84-2.6.2-5.3-.23-7.76.92-1.76.82-2.94,2.18-3.54,4.08-1.39,4.39.38,8.07,3.81,10.86,4.15,3.37,9.44,6.55,7.65,13.01-.2.74-.46,1.33-.78,1.78-.16.23-.19.21-.09-.05,1.73-4.47-.85-7.27-4.56-9.56-3.11-1.92-6.47-3.26-9.35-5.57-3.85-3.1-6.13-8.05-5.26-13.02.55-3.16,1.86-6.19,3.39-8.98-.32-.62-.63-1.23-.94-1.86-1.6-3.2-3.91-6.05-5.35-9.31-.04-.1-.03-.11.05-.03,3.09,3.43,6.81,5.21,10.72,7.33Z"/>
  </g>
  <g class="cls-4">
    <path class="cls-2" d="M103.1,85.62c-1.54-.31-3.12-.31-4.68,0-1.14.22-2.27.62-3.39,1.17.59-.51,1.27-1.2,1.92-2.11.61-.86,1.11-1.79,1.49-2.79,1.83-.84,3.32-1.65,4.45-2.31,2.56-1.51,3.87-2.63,3.88-2.64.91-.8,1.35-2.1,1.12-3.32-.18-.94-.73-1.64-1.49-1.91-.72-.26-1.37-.14-1.84.31-.49.48-.69,1.27-.47,1.92.23.72.82,1.05,1.3,1.06h.03c.38,0,.69-.2.82-.54.24-.62-.12-1.06-.34-1.21-.07-.04-.16-.03-.2.04-.05.07-.03.16.04.2.02.02.45.3.23.86-.09.23-.3.36-.58.35-.36-.01-.84-.29-1.03-.86-.17-.54,0-1.22.41-1.62.38-.38.93-.46,1.54-.25.67.24,1.15.85,1.31,1.69.22,1.12-.19,2.32-1.02,3.05-.02.01-1.31,1.13-3.85,2.62-1.07.63-2.45,1.38-4.15,2.17.14-.39.25-.79.35-1.2.48-2,.52-4.21.13-6.56l-.04-.19-.17.09s-2.23,1.15-4,3.45c-1.04,1.35-1.73,2.84-2.06,4.41-.16.78-.22,1.58-.2,2.41-.47.16-.95.32-1.44.47-.02.01-.92.32-2.32,1.03-.03-.21-.07-.42-.11-.64-.29-1.27-.69-3.09.15-5.21,0,0-4.47,2.72-3.95,8.24-.42.3-.84.62-1.27.97-2.21,1.76-4.14,3.8-5.73,6.05.31-.85.65-2.01.81-3.34.19-1.6.08-3.14-.32-4.55-.51-1.77-1.49-3.34-2.91-4.69l-.29-.27.05.39s.22,2.29-1.18,6.29c-.85,2.45-.02,4.45.56,5.43.71,1.2,1.66,1.99,2.3,2.21-1.67,2.7-2.91,5.69-3.67,8.9l.28.07s.53-1.65,1.91-3.73c.41-.62.93-1.32,1.56-2.06.23.45,1.11,1.74,3.35,1.3,1.82-.36,3.7-2.07,3.7-2.07,0,0-3.45-1.55-6.65.32,1.3-1.41,3.02-2.9,5.26-4.11.25-.14.49-.27.73-.4.1.36.42,1.2,1.3,2.02.95.88,2.74,1.88,6.04,1.88.3,0,.6-.01.93-.03h0s3.07-.29,5.17-.11l.26.02-.11-.23c-.04-.08-.97-1.94-3.12-3.37-1.26-.84-2.67-1.35-4.2-1.51-1.49-.16-3.1.01-4.79.51,3.34-1.9,5.85-3.54,7.85-5.14.22.26.83.85,2.01,1.26.63.22,1.49.4,2.6.4,1.29,0,2.92-.24,4.93-.94.03-.01,2.94-1.13,5.08-1.59l.3-.07-.24-.19c-.07-.05-1.66-1.28-4.28-1.8ZM103.03,85.9c1.48.3,2.64.83,3.36,1.23-2.87-.79-7.42-.4-9.81.32-1.68.51-2.83.7-3.42.77,4.03-2.73,7.58-2.78,9.87-2.32ZM92.97,88.42c.49-.05,1.74-.21,3.66-.79,2.53-.77,7.53-1.16,10.29-.15-.05.02-.1.03-.16.04-.63-.05-2.88-.13-7.1.74-3.85.8-5.92.49-6.45.38-.1-.09-.18-.17-.24-.23ZM94.82,83.42c-.39,1.25-.77,2.6-1.13,4.02-.06.04-.11.07-.16.09.02-1.36.13-2.61.31-3.76.33-.12.66-.24.97-.36ZM93.9,83.45c.37-2.17.97-3.91,1.51-5.15.71-1.65,1.42-2.71,1.72-3.13.43-.36.83-.64,1.14-.84-.49,1.05-1.94,4.26-3.35,8.74-.33.13-.67.26-1.02.38ZM93.9,87.3c.36-1.4.73-2.72,1.12-3.96.45-.17.88-.34,1.3-.52-.53,1.33-1.16,2.72-1.9,4.09-.19.15-.37.28-.52.38ZM93.38,87.03c-.29-.99-.46-1.97-.51-2.91.27-.09.53-.19.79-.28-.15.98-.26,2.04-.29,3.18ZM96.72,84.51c-.66.93-1.37,1.63-1.96,2.13.68-1.32,1.27-2.64,1.78-3.91.53-.22,1.03-.44,1.52-.66-.4.97-.87,1.79-1.33,2.44ZM98.2,81.69c-.48.22-.98.44-1.52.67,1.27-3.28,1.96-6.14,2.24-7.41.3,2.77-.08,5-.72,6.74ZM98.86,74.42c-.16.81-.88,4.14-2.4,8.03-.43.18-.88.36-1.34.54,1.53-4.85,3.09-8.18,3.41-8.84.1-.06.19-.11.26-.15l.06.42ZM95.07,77.28c.51-.66,1.05-1.22,1.56-1.68-.36.56-.88,1.45-1.38,2.63-.55,1.27-1.16,3.06-1.54,5.29-.28.1-.56.2-.85.3-.05-2.38.69-4.57,2.21-6.54ZM91.23,84.66c.47-.15.92-.3,1.36-.44.06,1.13.29,2.3.69,3.49-.21.18-.43.35-.65.54l-.11.08h0c-1.57,1.25-3.45,2.53-5.81,3.95.7-.89,2.44-3.44,2.14-6.55,1.43-.73,2.36-1.05,2.38-1.06ZM76.96,96.01c-.33-.49-1.7-2.71-1.51-6.1.18-3.08.03-4.84-.05-5.45.03-.22.06-.43.07-.62.27.74.73,2.71.86,7.36,0,.14.06,3.31.75,4.78l-.03.06s-.07-.03-.1-.04ZM76.52,91.2c-.16-5.58-.79-7.31-1.01-7.75.01-.15.02-.29.02-.41.24.44.65,1.31,1.02,2.66.52,1.88,1.06,5.12.73,9.88-.03.07-.06.14-.09.2-.62-1.49-.68-4.54-.68-4.57ZM78.42,91.44c-.18,1.51-.6,2.8-.94,3.65.27-4.52-.26-7.62-.77-9.45-.46-1.68-.98-2.6-1.18-2.92,2.88,2.92,3.16,6.34,2.88,8.72ZM74.86,93.93c-.55-.93-1.36-2.84-.54-5.19.5-1.43.8-2.64.97-3.6.07.89.12,2.45-.02,4.76-.17,3.03.89,5.15,1.38,5.95-.52-.31-1.22-.95-1.79-1.92ZM82.51,94.66c-3.71,2.02-6.03,4.77-7.32,6.72-.47.71-.84,1.37-1.13,1.93,2.18-7.1,6.43-11.67,9.74-14.32.39-.31.77-.6,1.14-.87.17,1.3.6,2.74,1.44,4.34-.94.56-1.95,1.14-3.05,1.74h-.01c-.27.16-.54.3-.81.45ZM84.14,94.21c.38.09,1.58.36,3.73.49,3.31.2,6.29,1.31,8.47,3.11-.74-.45-2.74-1.47-6.18-1.8-3.61-.34-5.74-1.32-6.41-1.67.14-.05.27-.1.4-.15ZM91.62,98.09c-3.77.2-5.74-.85-6.73-1.77-.55-.5-.86-1.02-1.04-1.41.76.59,2.7,1.86,5.58,2.15,2.43.24,4.12.63,5,.87-1.45.03-2.73.15-2.8.16ZM95.01,97.93c-.57-.18-2.47-.72-5.57-1.03-3.24-.32-5.27-1.91-5.73-2.31-.01-.03-.02-.05-.03-.07.7.36,2.85,1.34,6.46,1.68,3.35.32,5.32,1.3,6.07,1.74-.39-.02-.8-.02-1.21-.02ZM93.66,94.93c1.35.9,2.22,2,2.67,2.67-2.2-1.78-5.17-2.85-8.45-3.06-1.77-.11-2.89-.31-3.43-.43,3.51-1.14,6.68-.86,9.21.82ZM102.15,89.01c-3.67,1.27-6.01.99-7.32.55-.58-.2-1.02-.45-1.33-.68.33.05.84.1,1.55.1,1.08,0,2.61-.11,4.65-.54,3.4-.7,5.49-.79,6.51-.77-1.95.53-4.03,1.33-4.05,1.34Z"/>
  </g>
  <path class="cls-2" d="M79.81,84.31c0,.7.57,1.28,1.28,1.28s1.28-.57,1.28-1.28-.57-1.28-1.28-1.28-1.28.57-1.28,1.28ZM81.08,83.38c.52,0,.93.42.93.93s-.42.93-.93.93-.93-.42-.93-.93.42-.93.93-.93Z"/>
  <path class="cls-2" d="M80.56,80.48c0,.11-.04.22-.13.3-.08.08-.18.13-.3.13s-.22-.04-.3-.13-.13-.19-.13-.3.05-.22.13-.31.18-.13.3-.13.22.04.3.13c.09.08.13.19.13.31Z"/>
  <path class="cls-2" d="M83.57,80.21c.19.08.33.21.41.41.08.19.08.39,0,.58-.08.19-.21.33-.41.41s-.39.08-.58,0-.33-.22-.41-.41c-.08-.19-.08-.39,0-.58.08-.19.22-.33.41-.41s.39-.08.58,0Z"/>
  <path class="cls-2" d="M91.98,77.82c0,.21-.07.39-.22.53s-.32.22-.54.22-.39-.08-.53-.22-.22-.32-.22-.53.08-.39.22-.54.32-.22.53-.22.39.08.54.22.22.32.22.54Z"/>
  <path class="cls-2" d="M106.14,82.72c0,.21-.07.39-.22.54-.15.15-.33.22-.54.22s-.39-.08-.53-.22c-.15-.15-.22-.32-.22-.54s.07-.39.22-.53c.15-.15.32-.22.53-.22s.39.08.54.22c.15.15.22.32.22.53Z"/>
  <path class="cls-2" d="M102.77,82.61c0,.24.19.44.43.44s.44-.19.44-.44-.19-.44-.44-.44-.43.2-.43.44Z"/>
  <path class="cls-2" d="M106.29,80.97c0-.14-.11-.24-.24-.24s-.24.11-.24.24.11.24.24.24.24-.11.24-.24Z"/>
  <path class="cls-2" d="M89.34,76.46c.03.13.01.24-.06.35-.06.11-.16.18-.28.21-.13.03-.24.01-.35-.06s-.18-.16-.21-.29c-.03-.13-.01-.24.06-.35.07-.1.16-.18.29-.2.13-.03.24-.01.35.06.1.06.18.16.2.28Z"/>
</svg>