<?xml version="1.0" encoding="iso-8859-1"?>
<!-- Generator: Adobe Illustrator 29.2.1, SVG Export Plug-In . SVG Version: 9.03 Build 55982)  -->
<svg version="1.1" id="Layer_1" xmlns:xlink="http://www.w3.org/1999/xlink"
	 xmlns="http://www.w3.org/2000/svg" xmlns:xlink="http://www.w3.org/1999/xlink" x="0px" y="0px" viewBox="0 0 500 500"
	 style="enable-background:new 0 0 500 500;" xml:space="preserve">
<g>
	<g transform="translate(94.329017, 196.903408)">
		<g>
			<path style="fill:#FCD6D2;" d="M33.401,65.864c-0.656,0-0.979-0.188-0.979-0.562c0-0.292,0.177-0.438,0.542-0.438l0.75,0.083
				c0.542,0,0.917-0.26,1.125-0.792c0.234-0.583,0.354-1.688,0.354-3.313V50.155c0-1.693-0.094-2.75-0.271-3.167
				c-0.167-0.427-0.354-0.693-0.562-0.792c-0.198-0.109-0.438-0.167-0.729-0.167l-0.667,0.083c-0.365,0-0.542-0.146-0.542-0.438
				c0-0.375,0.276-0.562,0.833-0.562c0.552,0,1.042,0.042,1.458,0.125c0.417,0.073,0.812,0.104,1.188,0.104s0.714-0.01,1.021-0.042
				c0.318-0.042,0.651-0.083,1-0.125c0.969-0.135,1.818-0.208,2.542-0.208c0.719,0,1.448,0.115,2.188,0.333
				c0.734,0.208,1.359,0.51,1.875,0.896c1.109,0.823,1.667,1.885,1.667,3.188c0,1.724-0.729,3.182-2.188,4.375
				c1.26,0.365,2.323,1.073,3.188,2.125c0.885,1.099,1.333,2.328,1.333,3.688c0,1.917-0.635,3.469-1.896,4.646
				c-1.281,1.198-2.948,1.792-5,1.792c-0.656,0-1.406-0.042-2.25-0.125c-1.667-0.167-2.792-0.25-3.375-0.25L33.401,65.864z
				 M37.568,53.489c1.135,0.115,2.052,0.167,2.75,0.167c1.026,0,1.651-0.01,1.875-0.042c0.234-0.042,0.448-0.146,0.646-0.312
				c0.193-0.177,0.375-0.401,0.542-0.667c0.359-0.625,0.542-1.292,0.542-2s-0.12-1.333-0.354-1.875c-0.24-0.542-0.562-1-0.979-1.375
				c-0.849-0.76-1.917-1.146-3.208-1.146c-0.615,0-1.188,0.104-1.729,0.312c-0.031,0.5-0.052,0.885-0.062,1.146
				c0,0.25-0.01,0.479-0.021,0.688c0,0.198,0,0.375,0,0.542V53.489z M44.631,56.572c-0.417-0.526-0.932-0.948-1.542-1.271
				c-0.615-0.318-1.188-0.479-1.729-0.479h-1.646c-0.573,0-1.286,0.031-2.146,0.083v3.75c0,2.266,0.031,4.01,0.104,5.229
				c0.901,0.557,2.062,0.833,3.479,0.833c2.25,0,3.729-0.802,4.438-2.417c0.219-0.542,0.333-1.172,0.333-1.896
				c0-0.719-0.115-1.406-0.333-2.062C45.365,57.676,45.047,57.088,44.631,56.572z"/>
		</g>
	</g>
</g>
<g>
	<g transform="translate(112.960067, 196.903408)">
		<g>
			<path style="fill:#FCD6D2;" d="M39.674,65.864c-0.667,0-1-0.188-1-0.562c0-0.292,0.188-0.438,0.562-0.438l0.729,0.083
				c0.609,0,1.021-0.339,1.229-1.021c0.167-0.583,0.25-1.609,0.25-3.083V50.155c0-1.484-0.073-2.458-0.208-2.917
				c-0.141-0.458-0.307-0.771-0.5-0.938c-0.198-0.167-0.453-0.25-0.771-0.25l-0.729,0.062c-0.375,0-0.562-0.146-0.562-0.438
				c0-0.375,0.276-0.562,0.833-0.562c0.552,0,1.083,0.042,1.583,0.125c0.5,0.073,1.021,0.104,1.562,0.104
				c0.552,0,1.083-0.031,1.583-0.104c0.5-0.083,1.135-0.125,1.917-0.125c0.776,0,1.615,0.125,2.521,0.375
				c0.901,0.25,1.656,0.615,2.271,1.083c1.276,0.958,1.917,2.229,1.917,3.812c0,1.75-0.724,3.266-2.167,4.542
				c-0.458,0.406-0.974,0.745-1.542,1.021l4.917,7.146c0.552,0.823,1.167,1.313,1.833,1.479c0.193,0.057,0.438,0.099,0.729,0.125
				c0.51,0.057,0.771,0.229,0.771,0.521c0,0.281-0.281,0.417-0.833,0.417h-2.896c-0.698,0-1.328-0.448-1.896-1.354l-3.812-6.104
				c-0.349-0.542-0.682-0.922-1-1.146c-0.307-0.219-0.786-0.333-1.438-0.333c-0.656,0-1.224,0.016-1.708,0.042v4.104
				c0,1.516,0.068,2.495,0.208,2.938c0.135,0.448,0.302,0.75,0.5,0.917c0.193,0.167,0.458,0.25,0.792,0.25l0.729-0.083
				c0.359,0,0.542,0.146,0.542,0.438c0,0.375-0.328,0.562-0.979,0.562c-0.333,0-0.688-0.031-1.062-0.083
				c-1.208-0.193-2.245-0.229-3.104-0.104C40.58,65.801,39.992,65.864,39.674,65.864z M43.82,55.405
				c0.667,0.073,1.297,0.104,1.896,0.104h0.958c0.984,0,1.812-0.333,2.479-1c0.792-0.776,1.188-1.839,1.188-3.188
				c0-1.609-0.495-2.88-1.479-3.812c-0.917-0.885-2.099-1.333-3.542-1.333c-0.516,0-0.896,0.073-1.146,0.208
				c-0.24,0.141-0.354,0.385-0.354,0.729V55.405z"/>
		</g>
	</g>
</g>
<g>
	<g transform="translate(132.420051, 196.903408)">
		<g>
			<path style="fill:#FCD6D2;" d="M46.348,65.864c-0.656,0-0.979-0.188-0.979-0.562c0-0.292,0.177-0.438,0.542-0.438l0.75,0.083
				c0.542,0,0.917-0.26,1.125-0.792c0.234-0.583,0.354-1.688,0.354-3.313l-0.083-10.688c0-1.667-0.094-2.714-0.271-3.146
				c-0.167-0.427-0.349-0.693-0.542-0.792c-0.182-0.109-0.406-0.167-0.667-0.167l-0.75,0.062c-0.365,0-0.542-0.146-0.542-0.438
				c0-0.375,0.276-0.562,0.833-0.562c0.552,0,1.083,0.042,1.583,0.125c0.5,0.073,1.021,0.104,1.562,0.104
				c0.552,0,1.073-0.031,1.562-0.104c0.5-0.083,1.021-0.125,1.562-0.125c0.552,0,0.833,0.188,0.833,0.562
				c0,0.292-0.182,0.438-0.542,0.438l-0.729-0.062c-0.542,0-0.927,0.266-1.146,0.792c-0.224,0.583-0.333,1.688-0.333,3.312
				l0.062,10.688c0,1.625,0.094,2.661,0.292,3.104c0.208,0.448,0.406,0.724,0.604,0.833c0.208,0.115,0.443,0.167,0.708,0.167
				l0.729-0.083c0.359,0,0.542,0.146,0.542,0.438c0,0.375-0.328,0.562-0.979,0.562c-0.333,0-0.688-0.031-1.062-0.083
				c-1.266-0.208-2.344-0.25-3.229-0.125C47.265,65.791,46.666,65.864,46.348,65.864z"/>
		</g>
	</g>
</g>
<g>
	<g transform="translate(144.794299, 196.903408)">
		<g>
			<path style="fill:#FCD6D2;" d="M50.286,65.864c-0.667,0-1-0.188-1-0.562c0-0.292,0.188-0.438,0.562-0.438l0.729,0.083
				c0.609,0,1.021-0.339,1.229-1.021c0.167-0.583,0.25-1.609,0.25-3.083V50.155c0-1.484-0.073-2.458-0.208-2.917
				c-0.141-0.458-0.307-0.771-0.5-0.938c-0.198-0.167-0.453-0.25-0.771-0.25l-0.729,0.062c-0.375,0-0.562-0.146-0.562-0.438
				c0-0.375,0.276-0.562,0.833-0.562c0.552,0,1.042,0.042,1.458,0.125c0.417,0.073,0.823,0.104,1.229,0.104
				c1.068,0,1.958-0.047,2.667-0.146c1.068-0.151,2.297-0.229,3.688-0.229c1.385,0,2.771,0.25,4.146,0.75
				c1.375,0.49,2.552,1.188,3.542,2.104c2.109,1.932,3.167,4.469,3.167,7.604c0,2.974-1.036,5.448-3.104,7.417
				c-2.141,2.073-4.948,3.104-8.417,3.104c-0.833,0-1.646-0.042-2.438-0.125c-1.458-0.125-2.516-0.188-3.167-0.188L50.286,65.864z
				 M54.431,58.655c0,1.792,0.047,3.469,0.146,5.021c1.344,0.698,2.854,1.042,4.521,1.042c1.219,0,2.49-0.292,3.813-0.875
				c2.068-0.901,3.422-2.526,4.062-4.875c0.234-0.818,0.354-1.885,0.354-3.208c0-1.318-0.229-2.594-0.688-3.833
				c-0.448-1.234-1.073-2.276-1.875-3.125c-1.641-1.75-3.854-2.625-6.646-2.625c-1.99,0-3.125,0.266-3.417,0.792
				c-0.156,0.281-0.24,0.599-0.25,0.958c-0.016,0.365-0.021,0.719-0.021,1.063V58.655z"/>
		</g>
	</g>
</g>
<g>
	<g transform="translate(166.922796, 196.903408)">
		<g>
			<path style="fill:#FCD6D2;" d="M59.016,65.634c-0.516,0-1,0.031-1.458,0.104c-0.448,0.083-0.932,0.125-1.458,0.125
				c-0.51,0-0.771-0.167-0.771-0.5c0-0.344,0.245-0.521,0.729-0.521c0.484,0,0.833-0.089,1.042-0.271
				c0.344-0.302,0.688-0.812,1.021-1.521c0.333-0.708,0.646-1.365,0.938-1.979c0.292-0.625,0.615-1.344,0.979-2.167
				c0.375-0.818,0.781-1.734,1.229-2.75c0.458-1.01,0.938-2.089,1.438-3.229c1.292-3,2.135-5.01,2.542-6.042
				c0.417-1.042,0.646-1.615,0.688-1.729c0.052-0.109,0.104-0.214,0.146-0.312c0.135-0.208,0.25-0.312,0.333-0.312
				c0.094,0,0.172,0.016,0.229,0.042c0.068,0.031,0.135,0.078,0.208,0.146c0.151,0.198,0.297,0.479,0.438,0.854
				c0.151,0.375,0.354,0.891,0.604,1.542c0.26,0.641,0.562,1.37,0.896,2.188c0.333,0.823,0.688,1.703,1.062,2.646
				c0.375,0.932,0.75,1.865,1.125,2.792c0.385,0.932,0.755,1.844,1.104,2.729c0.359,0.875,0.688,1.667,0.979,2.375
				c0.859,2.115,1.406,3.375,1.646,3.792c0.25,0.406,0.458,0.688,0.625,0.854c0.25,0.24,0.615,0.354,1.104,0.354
				c0.5,0,0.75,0.177,0.75,0.521c0,0.333-0.323,0.5-0.958,0.5c-0.266,0-0.5-0.016-0.708-0.042c-0.198-0.031-0.391-0.052-0.583-0.062
				c-0.583-0.083-1.104-0.125-1.562-0.125l-2.917,0.229c-0.667,0-1-0.188-1-0.562c0-0.302,0.188-0.458,0.562-0.458l0.896,0.104
				c0.385,0,0.635-0.083,0.75-0.25c0.125-0.167,0.188-0.375,0.188-0.625c0-0.469-0.203-1.208-0.604-2.208l-1.25-3.146h-8.396
				c-0.25,0.615-0.479,1.167-0.688,1.667c-0.208,0.5-0.396,0.99-0.562,1.458c-0.281,0.781-0.417,1.391-0.417,1.833
				c0,0.432,0.073,0.75,0.229,0.958c0.167,0.208,0.464,0.312,0.896,0.312l0.917-0.083c0.359,0,0.542,0.146,0.542,0.438
				c0,0.375-0.328,0.562-0.979,0.562L59.016,65.634z M69.474,57.426l-3.604-9.021c-0.698,1.766-1.937,4.771-3.729,9.021H69.474z"/>
		</g>
	</g>
</g>
<g>
	<g transform="translate(187.643226, 196.903408)">
		<g>
			<path style="fill:#FCD6D2;" d="M64.402,65.864c-0.557,0-0.833-0.188-0.833-0.562c0-0.292,0.188-0.438,0.563-0.438l0.729,0.083
				c0.609,0,1.021-0.339,1.229-1.021c0.167-0.583,0.25-1.609,0.25-3.083V50.155c0-1.484-0.073-2.458-0.208-2.917
				c-0.141-0.458-0.307-0.771-0.5-0.938c-0.198-0.167-0.453-0.25-0.771-0.25l-0.729,0.062c-0.375,0-0.563-0.146-0.563-0.438
				c0-0.375,0.276-0.562,0.833-0.562c0.552,0,1.083,0.042,1.583,0.125c0.5,0.073,1.021,0.104,1.562,0.104s1.052-0.031,1.542-0.104
				c0.484-0.083,1.005-0.125,1.562-0.125c0.552,0,0.833,0.188,0.833,0.562c0,0.292-0.182,0.438-0.542,0.438l-0.729-0.062
				c-0.625,0-1.042,0.344-1.25,1.021c-0.167,0.531-0.25,1.557-0.25,3.083v8.542c0,2.208,0.052,4.042,0.167,5.5
				c0.734,0.208,1.547,0.312,2.438,0.312c0.885,0,1.667-0.047,2.333-0.146c0.667-0.109,1.234-0.271,1.708-0.479
				c0.917-0.359,1.625-0.984,2.125-1.875c0.208-0.375,0.406-0.562,0.604-0.562c0.208,0,0.312,0.156,0.312,0.458
				c0,0.115-0.036,0.266-0.104,0.458c-0.083,0.266-0.203,0.661-0.354,1.188c-0.156,0.516-0.281,0.911-0.375,1.187
				c-0.099,0.281-0.208,0.51-0.333,0.688c-0.24,0.344-0.573,0.521-1,0.521c-0.432,0-0.844-0.01-1.229-0.021
				c-0.375,0-0.771-0.01-1.188-0.021c-0.417-0.016-0.87-0.036-1.354-0.062c-0.49-0.031-1.042-0.057-1.667-0.083
				c-0.615-0.031-1.146-0.057-1.604-0.083c-0.448-0.031-0.896-0.042-1.354-0.042c-0.448,0-0.823,0.01-1.125,0.042
				c-0.292,0.026-0.557,0.047-0.792,0.062c-0.24,0.026-0.474,0.052-0.708,0.083C64.975,65.848,64.704,65.864,64.402,65.864z"/>
		</g>
	</g>
</g>
<g>
	<g transform="translate(204.775367, 196.903408)">
	</g>
</g>
<g>
	<g transform="translate(215.412251, 196.903408)">
		<g>
			<path style="fill:#FCD6D2;" d="M73.762,65.864c-0.656,0-0.979-0.188-0.979-0.562c0-0.292,0.177-0.438,0.542-0.438l0.75,0.083
				c0.542,0,0.917-0.26,1.125-0.792c0.234-0.583,0.354-1.688,0.354-3.313V50.155c0-1.693-0.094-2.75-0.271-3.167
				c-0.167-0.427-0.354-0.693-0.562-0.792c-0.198-0.109-0.438-0.167-0.729-0.167l-0.667,0.083c-0.365,0-0.542-0.146-0.542-0.438
				c0-0.375,0.276-0.562,0.833-0.562c0.552,0,1.042,0.042,1.458,0.125c0.417,0.073,0.812,0.104,1.188,0.104s0.714-0.01,1.021-0.042
				c0.318-0.042,0.651-0.083,1-0.125c0.969-0.135,1.818-0.208,2.542-0.208c0.719,0,1.448,0.115,2.188,0.333
				c0.734,0.208,1.359,0.51,1.875,0.896c1.109,0.823,1.667,1.885,1.667,3.188c0,1.724-0.729,3.182-2.188,4.375
				c1.26,0.365,2.323,1.073,3.188,2.125c0.885,1.099,1.333,2.328,1.333,3.688c0,1.917-0.635,3.469-1.896,4.646
				c-1.281,1.198-2.948,1.792-5,1.792c-0.656,0-1.406-0.042-2.25-0.125c-1.667-0.167-2.792-0.25-3.375-0.25L73.762,65.864z
				 M77.929,53.489c1.135,0.115,2.052,0.167,2.75,0.167c1.026,0,1.651-0.01,1.875-0.042c0.234-0.042,0.448-0.146,0.646-0.312
				c0.193-0.177,0.375-0.401,0.542-0.667c0.359-0.625,0.542-1.292,0.542-2s-0.12-1.333-0.354-1.875c-0.24-0.542-0.562-1-0.979-1.375
				c-0.849-0.76-1.917-1.146-3.208-1.146c-0.615,0-1.188,0.104-1.729,0.312c-0.031,0.5-0.052,0.885-0.062,1.146
				c0,0.25-0.01,0.479-0.021,0.688c0,0.198,0,0.375,0,0.542V53.489z M84.992,56.572c-0.417-0.526-0.932-0.948-1.542-1.271
				c-0.615-0.318-1.188-0.479-1.729-0.479h-1.646c-0.573,0-1.286,0.031-2.146,0.083v3.75c0,2.266,0.031,4.01,0.104,5.229
				c0.901,0.557,2.062,0.833,3.479,0.833c2.25,0,3.729-0.802,4.438-2.417c0.219-0.542,0.333-1.172,0.333-1.896
				c0-0.719-0.115-1.406-0.333-2.062C85.726,57.676,85.408,57.088,84.992,56.572z"/>
		</g>
	</g>
</g>
<g>
	<g transform="translate(234.043298, 196.903408)">
		<g>
			<path style="fill:#FCD6D2;" d="M79.827,65.864c-0.557,0-0.833-0.188-0.833-0.562c0-0.292,0.177-0.438,0.542-0.438l0.75,0.083
				c0.568,0,0.948-0.24,1.146-0.729c0.219-0.552,0.333-1.667,0.333-3.333V50.155c0-1.651-0.078-2.693-0.229-3.125
				c-0.156-0.427-0.328-0.698-0.521-0.812c-0.198-0.109-0.438-0.167-0.729-0.167l-0.75,0.062c-0.365,0-0.542-0.146-0.542-0.438
				c0-0.375,0.271-0.562,0.812-0.562c0.542,0,0.984,0.016,1.333,0.042c0.344,0.016,0.698,0.042,1.062,0.083
				c0.927,0.073,1.667,0.104,2.208,0.104c0.542,0,1.109-0.005,1.708-0.021c0.609-0.026,1.292-0.052,2.042-0.083
				c1.958-0.083,3.318-0.125,4.083-0.125c0.76,0,1.188,0.052,1.271,0.146c0.094,0.083,0.146,0.203,0.146,0.354
				c0,0.156-0.01,0.307-0.021,0.458c0,0.141-0.01,0.292-0.021,0.458c-0.016,0.24-0.052,0.583-0.104,1.042
				c-0.042,0.458-0.099,0.766-0.167,0.917c-0.073,0.156-0.177,0.229-0.312,0.229c-0.125,0-0.219-0.026-0.271-0.083
				c-0.042-0.068-0.115-0.219-0.208-0.458c-0.083-0.234-0.24-0.458-0.458-0.667c-0.208-0.219-0.542-0.406-1-0.562
				c-0.917-0.26-2.599-0.396-5.042-0.396h-1.354c-0.24,0-0.391,0.036-0.458,0.104c-0.073,0.073-0.104,0.229-0.104,0.479v6.375
				c1.208,0.141,2.208,0.208,3,0.208s1.354,0,1.688,0c0.333-0.01,0.609-0.047,0.833-0.104c0.401-0.068,0.688-0.24,0.854-0.521
				c0.344-0.542,0.625-0.812,0.833-0.812c0.276,0,0.417,0.146,0.417,0.438l-0.542,2.146l0.062,1.146
				c0,0.724-0.177,1.083-0.521,1.083c-0.292,0-0.438-0.193-0.438-0.583c0-0.385-0.021-0.672-0.062-0.854
				c-0.042-0.193-0.167-0.344-0.375-0.458c-0.333-0.167-1.125-0.25-2.375-0.25s-2.375,0.057-3.375,0.167v3.583
				c0,2.24,0.052,4.078,0.167,5.521c0.802,0.198,1.688,0.292,2.646,0.292s1.776-0.026,2.458-0.083
				c0.693-0.052,1.281-0.156,1.771-0.312c0.984-0.292,1.708-0.844,2.167-1.667c0.208-0.359,0.406-0.542,0.604-0.542
				c0.208,0,0.312,0.146,0.312,0.438c0,0.115-0.036,0.266-0.104,0.458c-0.083,0.266-0.203,0.661-0.354,1.188
				c-0.156,0.516-0.271,0.891-0.354,1.125c-0.083,0.224-0.177,0.396-0.271,0.521c-0.156,0.208-0.453,0.312-0.896,0.312
				c-0.448,0-0.875-0.01-1.292-0.021c-0.406,0-0.833-0.01-1.292-0.021c-0.531-0.016-1.344-0.057-2.438-0.125
				c-2.75-0.125-4.365-0.167-4.833-0.125c-0.474,0.042-0.833,0.068-1.083,0.083c-0.24,0.026-0.474,0.052-0.708,0.083
				C80.415,65.848,80.145,65.864,79.827,65.864z"/>
		</g>
	</g>
</g>
<g>
	<g transform="translate(251.811339, 196.903408)">
		<g>
			<path style="fill:#FCD6D2;" d="M87.312,65.634c-0.516,0-1,0.031-1.458,0.104c-0.448,0.083-0.932,0.125-1.458,0.125
				c-0.51,0-0.771-0.167-0.771-0.5c0-0.344,0.245-0.521,0.729-0.521s0.833-0.089,1.042-0.271c0.344-0.302,0.688-0.812,1.021-1.521
				c0.333-0.708,0.646-1.365,0.938-1.979c0.292-0.625,0.615-1.344,0.979-2.167c0.375-0.818,0.781-1.734,1.229-2.75
				c0.458-1.01,0.938-2.089,1.438-3.229c1.292-3,2.135-5.01,2.542-6.042c0.417-1.042,0.646-1.615,0.688-1.729
				c0.052-0.109,0.104-0.214,0.146-0.312c0.135-0.208,0.25-0.312,0.333-0.312c0.094,0,0.172,0.016,0.229,0.042
				c0.068,0.031,0.135,0.078,0.208,0.146c0.151,0.198,0.297,0.479,0.438,0.854c0.151,0.375,0.354,0.891,0.604,1.542
				c0.26,0.641,0.562,1.37,0.896,2.188c0.333,0.823,0.688,1.703,1.062,2.646c0.375,0.932,0.75,1.865,1.125,2.792
				c0.385,0.932,0.755,1.844,1.104,2.729c0.359,0.875,0.688,1.667,0.979,2.375c0.859,2.115,1.406,3.375,1.646,3.792
				c0.25,0.406,0.458,0.688,0.625,0.854c0.25,0.24,0.615,0.354,1.104,0.354c0.5,0,0.75,0.177,0.75,0.521
				c0,0.333-0.323,0.5-0.958,0.5c-0.266,0-0.5-0.016-0.708-0.042c-0.198-0.031-0.391-0.052-0.583-0.062
				c-0.583-0.083-1.104-0.125-1.562-0.125l-2.917,0.229c-0.667,0-1-0.188-1-0.562c0-0.302,0.188-0.458,0.562-0.458l0.896,0.104
				c0.385,0,0.635-0.083,0.75-0.25c0.125-0.167,0.188-0.375,0.188-0.625c0-0.469-0.203-1.208-0.604-2.208l-1.25-3.146h-8.396
				c-0.25,0.615-0.479,1.167-0.688,1.667c-0.208,0.5-0.396,0.99-0.562,1.458c-0.281,0.781-0.417,1.391-0.417,1.833
				c0,0.432,0.073,0.75,0.229,0.958c0.167,0.208,0.464,0.312,0.896,0.312l0.917-0.083c0.359,0,0.542,0.146,0.542,0.438
				c0,0.375-0.328,0.562-0.979,0.562L87.312,65.634z M97.77,57.426l-3.604-9.021c-0.698,1.766-1.938,4.771-3.729,9.021H97.77z"/>
		</g>
	</g>
</g>
<g>
	<g transform="translate(272.531769, 196.903408)">
		<g>
			<path style="fill:#FCD6D2;" d="M99.011,46.114l-0.729-0.062c-0.615,0-1.031,0.344-1.25,1.021
				c-0.198,0.583-0.292,1.615-0.292,3.083v7.479c0,1.406,0.094,2.411,0.292,3.021c0.208,0.615,0.49,1.167,0.854,1.667
				c0.375,0.5,0.812,0.932,1.312,1.292c1,0.698,2.125,1.042,3.375,1.042c1.26,0,2.302-0.146,3.125-0.438
				c0.818-0.292,1.464-0.734,1.938-1.333c0.901-1.094,1.354-2.875,1.354-5.333l-0.021-7.396c0-1.484-0.078-2.458-0.229-2.917
				c-0.141-0.458-0.307-0.771-0.5-0.938c-0.198-0.167-0.453-0.25-0.771-0.25l-0.729,0.062c-0.365,0-0.542-0.146-0.542-0.438
				c0-0.375,0.276-0.562,0.833-0.562c0.552,0,1.031,0.042,1.438,0.125c0.417,0.073,0.854,0.104,1.312,0.104l2.5-0.229
				c0.635,0,0.958,0.188,0.958,0.562c0,0.292-0.182,0.438-0.542,0.438l-0.729-0.062c-0.615,0-1.021,0.344-1.229,1.021
				c-0.167,0.583-0.25,1.615-0.25,3.083l-0.021,8.167c0,2.25-0.724,4.094-2.167,5.521c-1.432,1.448-3.349,2.167-5.75,2.167
				c-2.625,0-4.698-0.719-6.208-2.167c-1.542-1.484-2.312-3.552-2.312-6.208v-7.479c0-1.469-0.078-2.438-0.229-2.896
				c-0.141-0.469-0.312-0.792-0.521-0.958c-0.208-0.167-0.474-0.25-0.792-0.25l-0.729,0.062c-0.375,0-0.562-0.146-0.562-0.438
				c0-0.375,0.276-0.562,0.833-0.562c0.568,0,1.115,0.042,1.646,0.125c0.542,0.073,1.104,0.104,1.688,0.104
				c0.594,0,1.167-0.031,1.708-0.104c0.552-0.083,1.109-0.125,1.667-0.125c0.552,0,0.833,0.188,0.833,0.562
				C99.573,45.968,99.386,46.114,99.011,46.114z"/>
		</g>
	</g>
</g>
<g>
	<g transform="translate(294.30824, 196.903408)">
		<g>
			<path style="fill:#FCD6D2;" d="M104.311,65.864c-0.656,0-0.979-0.188-0.979-0.562c0-0.292,0.177-0.438,0.542-0.438l0.729,0.083
				c0.609,0,1.021-0.339,1.229-1.021c0.177-0.583,0.271-1.609,0.271-3.083V46.676h-0.417c-1.766,0-3.177,0.182-4.229,0.542
				c-0.724,0.266-1.219,0.719-1.479,1.354c-0.198,0.474-0.396,0.708-0.604,0.708c-0.292,0-0.438-0.172-0.438-0.521
				c0-0.094,0.021-0.208,0.062-0.333c0.052-0.135,0.109-0.297,0.167-0.479c0.151-0.484,0.24-0.99,0.271-1.521
				c0.042-0.526,0.104-0.875,0.188-1.042c0.083-0.177,0.198-0.271,0.354-0.271c0.151,0,0.281,0.016,0.396,0.042
				c0.125,0.016,0.302,0.042,0.542,0.083c0.609,0.073,1.375,0.104,2.292,0.104h9.583c0.75,0,1.292-0.031,1.625-0.104
				c0.344-0.083,0.594-0.125,0.75-0.125c0.333,0,0.5,0.156,0.5,0.458c0,0.167-0.036,0.365-0.104,0.583
				c-0.141,0.5-0.24,0.932-0.292,1.292c-0.042,0.349-0.083,0.641-0.125,0.875c-0.042,0.224-0.083,0.396-0.125,0.521
				c-0.083,0.224-0.208,0.333-0.375,0.333c-0.156,0-0.26-0.052-0.312-0.167c-0.042-0.109-0.094-0.333-0.146-0.667
				c-0.042-0.333-0.125-0.604-0.25-0.812c-0.125-0.219-0.286-0.396-0.479-0.521c-0.365-0.219-0.938-0.333-1.729-0.333h-3.25v14.167
				c0,1.516,0.062,2.495,0.188,2.938c0.135,0.448,0.302,0.75,0.5,0.917c0.208,0.167,0.469,0.25,0.792,0.25l0.729-0.083
				c0.359,0,0.542,0.146,0.542,0.438c0,0.375-0.328,0.562-0.979,0.562c-0.333,0-0.682-0.031-1.042-0.083
				c-1.224-0.193-2.266-0.229-3.125-0.104C105.217,65.801,104.629,65.864,104.311,65.864z"/>
		</g>
	</g>
</g>
<g>
	<g transform="translate(312.780312, 196.903408)">
		<g>
			<path style="fill:#FCD6D2;" d="M110.885,65.864c-0.656,0-0.979-0.188-0.979-0.562c0-0.292,0.177-0.438,0.542-0.438l0.75,0.083
				c0.594,0,1-0.339,1.208-1.021c0.177-0.583,0.271-1.609,0.271-3.083V55.53l-4.771-7.021c-0.641-0.943-1.094-1.531-1.354-1.771
				c-0.432-0.375-0.87-0.562-1.312-0.562c-0.448,0-0.667-0.177-0.667-0.542c0-0.135,0.073-0.255,0.229-0.354
				c0.167-0.109,0.422-0.167,0.771-0.167c0.359,0,0.729,0.042,1.104,0.125c0.385,0.073,0.802,0.104,1.25,0.104l2.458-0.229
				c0.651,0,0.979,0.167,0.979,0.5c0,0.333-0.281,0.5-0.833,0.5c-0.557,0-0.833,0.182-0.833,0.542c0,0.198,0.177,0.578,0.542,1.146
				l4.188,6.333l3.208-5.083c0.651-1.026,1-1.646,1.042-1.854c0.052-0.219,0.083-0.375,0.083-0.458c0-0.417-0.323-0.625-0.958-0.625
				c-0.625,0-0.938-0.167-0.938-0.5c0-0.333,0.323-0.5,0.979-0.5c0.359,0,0.708,0.042,1.042,0.125
				c0.344,0.073,0.698,0.104,1.062,0.104c0.375,0,0.714-0.031,1.021-0.104c0.318-0.083,0.651-0.125,1-0.125
				c0.708,0,1.062,0.177,1.062,0.521c0,0.365-0.24,0.542-0.708,0.542c-0.49,0-0.875,0.135-1.167,0.396
				c-0.474,0.391-1.062,1.141-1.771,2.25l-4.333,6.5v5.521c0,1.516,0.068,2.495,0.208,2.938c0.135,0.448,0.302,0.75,0.5,0.917
				c0.193,0.167,0.448,0.25,0.771,0.25l0.729-0.083c0.359,0,0.542,0.146,0.542,0.438c0,0.375-0.323,0.562-0.958,0.562
				c-0.333,0-0.688-0.031-1.062-0.083c-1.208-0.193-2.25-0.229-3.125-0.104C111.791,65.801,111.203,65.864,110.885,65.864z"/>
		</g>
	</g>
</g>
<g>
	<g transform="translate(133.712581, 218.013535)">
		<g>
			<path style="fill:#FCD6D2;" d="M60.821,64.817c0.135,0.099,0.229,0.24,0.271,0.417c0.042,0.182,0.021,0.354-0.062,0.521
				c-1.099,1.75-2.073,3.177-2.917,4.271c-0.849,1.099-1.578,1.938-2.188,2.521c-0.599,0.568-1.104,0.948-1.521,1.146
				c-0.406,0.208-0.74,0.312-1,0.312c-0.25,0-0.448-0.01-0.583-0.021c-0.516-0.141-0.906-0.458-1.167-0.958
				c-0.25-0.484-0.417-0.99-0.5-1.521c-0.073-0.526-0.12-0.927-0.146-1.208c-0.042-0.792-0.135-1.323-0.271-1.604
				c-0.141-0.276-0.245-0.417-0.312-0.417c-0.016,0-0.021,0-0.021,0c-0.307,0-0.802,0.427-1.479,1.271
				c-0.682,0.833-1.49,2.141-2.417,3.917c-0.932,1.776-1.896,4.094-2.896,6.958c-0.094,0.292-0.302,0.438-0.625,0.438
				c-0.042,0-0.083,0-0.125,0c-0.375-0.083-0.547-0.312-0.521-0.688c0.031-0.391,0.135-1.083,0.312-2.083
				c0.182-1,0.427-2.208,0.729-3.625c0.307-1.406,0.656-2.922,1.042-4.562c0.375-1.651,0.755-3.318,1.146-5
				c0.401-1.693,0.781-3.312,1.146-4.854c0.375-1.542,0.708-2.927,1-4.167c0.302-1.234,0.547-2.219,0.729-2.958
				c0.177-0.75,0.271-1.13,0.271-1.146c0.526-2.109,1.109-4.026,1.75-5.75c0.635-1.719,1.271-3.109,1.896-4.167
				c0.625-1.052,1.177-1.625,1.667-1.708c0.385-0.068,0.688,0.042,0.896,0.333c0.318,0.458,0.292,1.417-0.083,2.875
				c-0.375,1.448-1.062,3.281-2.062,5.5c-1,2.208-2.266,4.688-3.792,7.438c-0.406,1.708-0.854,3.583-1.354,5.625
				c-0.49,2.031-0.969,4.073-1.438,6.125c-0.474,2.057-0.906,3.953-1.292,5.688c0.625-1.302,1.26-2.479,1.917-3.521
				c0.651-1.052,1.297-1.875,1.938-2.458c0.651-0.583,1.271-0.839,1.854-0.771c0.5,0.073,0.865,0.323,1.104,0.75
				c0.234,0.432,0.396,0.896,0.479,1.396c0.083,0.49,0.125,0.849,0.125,1.083c0.068,0.833,0.177,1.448,0.333,1.833
				c0.167,0.391,0.323,0.599,0.479,0.625c0.052,0.026,0.208,0,0.458-0.083c0.26-0.083,0.651-0.339,1.167-0.771
				c0.51-0.427,1.193-1.172,2.042-2.229c0.844-1.068,1.875-2.589,3.083-4.562c0.094-0.135,0.234-0.229,0.417-0.271
				C60.477,64.713,60.654,64.734,60.821,64.817z M53.8,42.067c-0.391,0.573-0.911,1.583-1.562,3.042
				c-0.656,1.448-1.312,3.411-1.979,5.896c1.167-2.302,2.01-4.198,2.542-5.688C53.342,43.833,53.675,42.749,53.8,42.067z"/>
		</g>
	</g>
</g>
<g>
	<g transform="translate(146.535171, 218.013535)">
		<g>
			<path style="fill:#FCD6D2;" d="M63.199,65.067c0.167,0.073,0.276,0.188,0.333,0.354c0.052,0.167,0.047,0.333-0.021,0.5
				c-0.432,0.891-0.906,1.781-1.417,2.667c-0.516,0.891-1.057,1.708-1.625,2.458c-0.557,0.74-1.135,1.328-1.729,1.771
				c-0.583,0.443-1.177,0.667-1.771,0.667c-0.115,0-0.24-0.01-0.375-0.021c-1.531-0.307-2.479-2.359-2.854-6.167
				c-0.391,0.531-0.844,1.12-1.354,1.771c-0.516,0.641-1.057,1.281-1.625,1.917c-0.083,0.099-0.229,0.245-0.438,0.438
				c-0.208,0.198-0.453,0.349-0.729,0.458c-0.281,0.115-0.552,0.104-0.812-0.021c-0.552-0.208-0.818-0.802-0.792-1.792
				c0-0.568,0.115-1.276,0.333-2.125c0.208-0.844,0.516-1.693,0.917-2.542c0.401-0.859,0.865-1.625,1.396-2.292
				c0.542-0.667,1.146-1.109,1.812-1.333c0.401-0.167,0.901-0.193,1.5-0.083c0.594,0.099,1.214,0.521,1.854,1.271
				c0.109,0.141,0.156,0.307,0.146,0.5c0,0.182-0.073,0.328-0.208,0.438c-0.141,0.115-0.307,0.161-0.5,0.146
				c-0.182-0.01-0.328-0.083-0.438-0.208c-0.542-0.635-1.016-0.943-1.417-0.917c-0.406,0.031-0.745,0.146-1.021,0.354
				c-0.5,0.375-0.958,0.906-1.375,1.583c-0.406,0.682-0.745,1.406-1.021,2.167c-0.266,0.75-0.458,1.453-0.583,2.104
				c-0.115,0.656-0.146,1.125-0.104,1.417c0.068-0.042,0.146-0.094,0.229-0.167c0.083-0.068,0.167-0.156,0.25-0.271
				c0.693-0.76,1.323-1.51,1.896-2.25c0.568-0.75,1.062-1.406,1.479-1.979c0.109-0.151,0.214-0.302,0.312-0.458
				c0.109-0.151,0.208-0.281,0.292-0.396c0.177-0.219,0.422-0.292,0.729-0.208c0.292,0.073,0.448,0.266,0.479,0.583
				c0.068,1.49,0.188,2.682,0.354,3.583c0.167,0.906,0.354,1.578,0.562,2.021c0.208,0.448,0.401,0.75,0.583,0.917
				c0.177,0.156,0.318,0.229,0.417,0.229c0.427,0.099,1.125-0.344,2.083-1.333c0.958-0.984,2.073-2.797,3.354-5.438
				c0.094-0.193,0.229-0.318,0.396-0.375C62.876,64.952,63.043,64.973,63.199,65.067z"/>
		</g>
	</g>
</g>
<g>
	<g transform="translate(157.841778, 218.013535)">
		<g>
			<path style="fill:#FCD6D2;" d="M62.656,64.859c0.167,0.099,0.26,0.24,0.292,0.417c0.026,0.182,0,0.349-0.083,0.5
				c-0.432,0.698-0.979,1.469-1.646,2.312c-0.667,0.833-1.391,1.641-2.167,2.417C58.27,71.27,57.499,71.9,56.739,72.4
				c-0.766,0.5-1.469,0.75-2.104,0.75c-0.281,0-0.516-0.052-0.708-0.146c-0.781-0.333-1.208-1.151-1.292-2.458
				c-0.083-1.318,0.177-3.177,0.792-5.583c0.052-0.177,0.156-0.312,0.312-0.396c0.167-0.094,0.323-0.125,0.479-0.083
				c0.177,0.042,0.318,0.146,0.417,0.312c0.094,0.156,0.115,0.312,0.062,0.479c-0.365,1.458-0.594,2.62-0.688,3.479
				c-0.083,0.849-0.099,1.495-0.042,1.938c0.052,0.432,0.135,0.724,0.25,0.875c0.125,0.141,0.193,0.208,0.208,0.208
				c0.302,0.141,0.74,0.042,1.312-0.292c0.568-0.333,1.208-0.818,1.917-1.458c0.708-0.651,1.417-1.406,2.125-2.271
				c0.719-0.859,1.375-1.755,1.958-2.688c0.109-0.167,0.25-0.26,0.417-0.292C62.322,64.734,62.489,64.765,62.656,64.859z
				 M54.572,62.109c-0.458-0.01-0.698-0.135-0.708-0.375c-0.016-0.25,0.083-0.5,0.292-0.75c0.219-0.25,0.448-0.422,0.688-0.521
				c0.359-0.109,0.625-0.083,0.792,0.083c0.177,0.156,0.26,0.354,0.25,0.604c-0.016,0.25-0.135,0.479-0.354,0.688
				C55.322,62.046,54.999,62.14,54.572,62.109z"/>
		</g>
	</g>
</g>
<g>
	<g transform="translate(166.09072, 218.013535)">
		<g>
			<path style="fill:#FCD6D2;" d="M70.405,64.9c0.167,0.083,0.281,0.219,0.354,0.396c0.068,0.167,0.052,0.328-0.042,0.479
				c-0.432,0.948-0.969,2-1.604,3.167c-0.625,1.167-1.292,2.344-2,3.521c-0.708,1.167-1.432,2.234-2.167,3.208
				c-0.724,0.969-1.432,1.755-2.125,2.354c-0.682,0.609-1.292,0.917-1.833,0.917c-0.167,0-0.323-0.036-0.458-0.104
				c-0.474-0.182-0.786-0.62-0.938-1.312c-0.156-0.682-0.135-1.661,0.062-2.938c0.318-2.302,1.156-5.568,2.521-9.792
				c-0.016,0-0.031,0.01-0.042,0.021c-0.016,0-0.036,0-0.062,0c-0.448,0.323-0.995,0.656-1.646,1
				c-0.641,0.349-1.302,0.578-1.979,0.688c-0.682,0.115-1.333-0.031-1.958-0.438c-0.865-0.625-1.302-1.484-1.333-2.583
				c-0.026-1.094,0.38-2.297,1.229-3.604c0.276-0.401,0.635-0.854,1.083-1.354c0.443-0.51,0.906-0.901,1.396-1.167
				c0.5-0.276,0.943-0.292,1.333-0.042c0.208,0.115,0.359,0.307,0.458,0.583c0.109,0.281,0.104,0.703-0.021,1.271
				c-0.115,0.573-0.385,1.333-0.812,2.292c-0.432,0.958-1.083,2.203-1.958,3.729c0.526,0.073,1.115-0.073,1.771-0.438
				c0.651-0.359,1.229-0.698,1.729-1.021c0.469-0.318,0.865-0.552,1.188-0.708c0.318-0.151,0.615-0.125,0.896,0.083
				c0.25,0.208,0.354,0.469,0.312,0.771c-0.042,0.292-0.094,0.516-0.146,0.667c-0.75,2.375-1.333,4.354-1.75,5.938
				c-0.406,1.573-0.682,2.833-0.833,3.792c-0.141,0.958-0.208,1.672-0.208,2.146c0,0.484,0.026,0.802,0.083,0.958
				c0.068,0.151,0.104,0.24,0.104,0.271c0.276,0.042,0.844-0.406,1.708-1.333c0.859-0.917,1.88-2.307,3.062-4.167
				c1.193-1.875,2.438-4.177,3.729-6.917c0.094-0.177,0.229-0.297,0.396-0.354C70.082,64.827,70.249,64.833,70.405,64.9z
				 M56.593,62.567c-0.141,0.474-0.182,0.87-0.125,1.188c0.068,0.307,0.156,0.552,0.271,0.729c0.719-1.276,1.271-2.312,1.646-3.104
				c0.385-0.802,0.646-1.422,0.771-1.854c0.135-0.443,0.219-0.755,0.25-0.938c-0.25,0.141-0.562,0.406-0.938,0.792
				c-0.375,0.391-0.745,0.865-1.104,1.417C57.015,61.338,56.759,61.932,56.593,62.567z"/>
		</g>
	</g>
</g>
<g>
	<g transform="translate(178.091089, 218.013535)">
	</g>
</g>
<g>
	<g transform="translate(187.727543, 218.013535)">
		<g>
			<path style="fill:#FCD6D2;" d="M77.347,67.025c0.25,0.432,0.177,0.995-0.208,1.688c-0.391,0.698-1.062,1.453-2.021,2.271
				c-0.599,0.516-1.328,1.021-2.188,1.521c0.219,0.5,0.469,0.979,0.75,1.438c0.276,0.469,0.583,0.917,0.917,1.333
				c0.125,0.167,0.177,0.339,0.167,0.521c-0.016,0.177-0.104,0.323-0.271,0.438c-0.115,0.094-0.245,0.146-0.396,0.146
				c-0.208,0-0.385-0.083-0.521-0.25c-0.682-0.891-1.286-1.906-1.812-3.042c-1.057,0.5-2.146,0.901-3.271,1.208
				c-1.115,0.302-2.125,0.443-3.042,0.417c-0.917-0.016-1.594-0.25-2.021-0.708c-1.167-1.281-0.057-3.562,3.333-6.854
				c0.609-0.594,1.172-1.172,1.688-1.729c0.51-0.552,0.984-1.083,1.417-1.583c-0.016-1.625,0.104-3.177,0.354-4.667
				c0.25-1.417,0.688-2.49,1.312-3.229c0.625-0.75,1.234-1.172,1.833-1.271c0.75-0.109,1.297,0.177,1.646,0.854
				c0.344,0.698,0.26,1.781-0.25,3.25c-0.516,1.474-1.698,3.323-3.542,5.542c0.01,1.099,0.115,2.245,0.312,3.438
				c0.193,1.198,0.5,2.37,0.917,3.521c0.677-0.417,1.281-0.839,1.812-1.271c0.609-0.552,1.052-1.01,1.333-1.375
				c0.276-0.359,0.448-0.635,0.521-0.833c-0.031,0.031-0.078,0.042-0.146,0.042c-0.156,0.073-0.312,0.062-0.479-0.021
				c-0.156-0.083-0.266-0.214-0.333-0.396c-0.073-0.151-0.073-0.302,0-0.458c0.083-0.167,0.214-0.281,0.396-0.354
				c0.594-0.208,1.026-0.219,1.292-0.042C77.107,66.734,77.274,66.89,77.347,67.025z M71.513,59.4
				c-0.073,0.391-0.125,0.812-0.167,1.271c-0.042,0.458-0.078,0.953-0.104,1.479c0.885-1.193,1.526-2.198,1.917-3.021
				c0.385-0.818,0.615-1.479,0.688-1.979c0.068-0.5,0.062-0.844-0.021-1.042c-0.057-0.083-0.12-0.125-0.188-0.125
				c-0.016,0-0.036,0-0.062,0c-0.323,0.042-0.698,0.349-1.125,0.917C72.019,57.473,71.706,58.307,71.513,59.4z M64.43,73.109
				c0.219,0.25,0.693,0.359,1.417,0.333c0.719-0.031,1.568-0.182,2.542-0.458c0.969-0.281,1.938-0.646,2.896-1.104
				c-0.365-0.984-0.656-1.99-0.875-3.021c-0.224-1.042-0.37-2.089-0.438-3.146c-0.708,0.781-1.474,1.578-2.292,2.396
				c-1.099,1.057-1.896,1.932-2.396,2.625c-0.5,0.698-0.802,1.24-0.896,1.625C64.305,72.744,64.315,72.994,64.43,73.109z"/>
		</g>
	</g>
</g>
<g>
	<g transform="translate(201.218198, 218.013535)">
	</g>
</g>
<g>
	<g transform="translate(210.854648, 218.013535)">
		<g>
			<path style="fill:#FCD6D2;" d="M89.618,65.005c0.135,0.115,0.208,0.26,0.208,0.438c0.01,0.182-0.036,0.344-0.146,0.479
				c-2.906,3.406-5.203,4.786-6.896,4.146c-1.208-0.458-1.854-1.906-1.938-4.354c-0.25,0.458-0.521,0.979-0.812,1.562
				c-0.292,0.583-0.531,1.057-0.708,1.417c-0.141,0.349-0.281,0.661-0.417,0.938c-0.125,0.266-0.25,0.49-0.375,0.667
				c-0.057,0.141-0.177,0.344-0.354,0.604c-0.167,0.266-0.385,0.495-0.646,0.688c-0.266,0.198-0.573,0.25-0.917,0.167
				c-0.406-0.125-0.708-0.427-0.917-0.917c-0.208-0.484-0.333-1.021-0.375-1.604c-0.042-0.583-0.062-1.062-0.062-1.438
				c0-0.292,0-0.568,0-0.833c0-0.276,0.005-0.531,0.021-0.771c-0.792,1.141-1.557,2.323-2.292,3.542
				c-0.74,1.224-1.516,2.625-2.333,4.208c-0.281,0.526-0.573,0.792-0.896,0.792c-0.109,0-0.208-0.036-0.292-0.104
				c-0.125-0.057-0.229-0.135-0.312-0.229c-0.094-0.099-0.151-0.307-0.167-0.625c-0.01-0.307,0.036-0.781,0.146-1.417
				c0.099-0.635,0.302-1.526,0.604-2.667c0.333-1.385,0.734-2.771,1.208-4.146c0.469-1.375,0.943-2.609,1.417-3.708
				c0.068-0.177,0.188-0.302,0.354-0.375c0.177-0.068,0.344-0.052,0.5,0.042c0.193,0.073,0.318,0.188,0.375,0.354
				c0.052,0.167,0.047,0.333-0.021,0.5c-0.615,1.432-1.167,2.932-1.667,4.5c-0.49,1.573-0.87,2.938-1.146,4.104
				c0.708-1.26,1.401-2.438,2.083-3.521c0.693-1.083,1.417-2.135,2.167-3.167c0.068-0.094,0.188-0.219,0.354-0.375
				c0.177-0.167,0.417-0.198,0.708-0.104c0.292,0.115,0.448,0.328,0.479,0.646c0.042,0.323,0.052,0.865,0.042,1.625
				c0,0.25-0.01,0.521-0.021,0.812c-0.016,0.292-0.021,0.599-0.021,0.917c0,0.698,0.042,1.26,0.125,1.688
				c0.094,0.432,0.177,0.729,0.25,0.896c0.042-0.052,0.104-0.135,0.188-0.25c0.083-0.109,0.177-0.255,0.292-0.438
				c0.094-0.167,0.208-0.38,0.333-0.646c0.125-0.276,0.26-0.573,0.417-0.896c0.594-1.276,1.083-2.255,1.458-2.938
				c0.375-0.693,0.698-1.167,0.979-1.417c0.276-0.25,0.562-0.339,0.854-0.271c0.375,0.083,0.589,0.307,0.646,0.667
				c0.052,0.349,0.083,0.625,0.083,0.833c-0.031,1.073,0.052,1.938,0.25,2.604c0.193,0.667,0.469,1.073,0.833,1.208
				c0.417,0.156,1.073-0.026,1.979-0.542c0.901-0.526,2.047-1.604,3.438-3.229c0.125-0.135,0.276-0.214,0.458-0.229
				C89.316,64.827,89.478,64.88,89.618,65.005z"/>
		</g>
	</g>
</g>
<g>
	<g transform="translate(225.989762, 218.013535)">
		<g>
			<path style="fill:#FCD6D2;" d="M89.684,65.067c0.167,0.073,0.276,0.188,0.333,0.354c0.052,0.167,0.047,0.333-0.021,0.5
				c-0.432,0.891-0.906,1.781-1.417,2.667c-0.516,0.891-1.057,1.708-1.625,2.458c-0.557,0.74-1.135,1.328-1.729,1.771
				c-0.583,0.443-1.177,0.667-1.771,0.667c-0.115,0-0.24-0.01-0.375-0.021c-1.531-0.307-2.479-2.359-2.854-6.167
				c-0.391,0.531-0.844,1.12-1.354,1.771c-0.516,0.641-1.057,1.281-1.625,1.917c-0.083,0.099-0.229,0.245-0.438,0.438
				c-0.208,0.198-0.453,0.349-0.729,0.458c-0.281,0.115-0.552,0.104-0.812-0.021c-0.552-0.208-0.818-0.802-0.792-1.792
				c0-0.568,0.115-1.276,0.333-2.125c0.208-0.844,0.516-1.693,0.917-2.542c0.401-0.859,0.865-1.625,1.396-2.292
				c0.542-0.667,1.146-1.109,1.812-1.333c0.401-0.167,0.901-0.193,1.5-0.083c0.594,0.099,1.214,0.521,1.854,1.271
				c0.109,0.141,0.156,0.307,0.146,0.5c0,0.182-0.073,0.328-0.208,0.438c-0.141,0.115-0.307,0.161-0.5,0.146
				c-0.182-0.01-0.328-0.083-0.438-0.208c-0.542-0.635-1.016-0.943-1.417-0.917c-0.406,0.031-0.745,0.146-1.021,0.354
				c-0.5,0.375-0.958,0.906-1.375,1.583c-0.406,0.682-0.745,1.406-1.021,2.167c-0.266,0.75-0.458,1.453-0.583,2.104
				c-0.115,0.656-0.146,1.125-0.104,1.417c0.068-0.042,0.146-0.094,0.229-0.167c0.083-0.068,0.167-0.156,0.25-0.271
				c0.693-0.76,1.323-1.51,1.896-2.25c0.568-0.75,1.062-1.406,1.479-1.979c0.109-0.151,0.214-0.302,0.312-0.458
				c0.109-0.151,0.208-0.281,0.292-0.396c0.177-0.219,0.422-0.292,0.729-0.208c0.292,0.073,0.448,0.266,0.479,0.583
				c0.068,1.49,0.188,2.682,0.354,3.583c0.167,0.906,0.354,1.578,0.562,2.021c0.208,0.448,0.401,0.75,0.583,0.917
				c0.177,0.156,0.318,0.229,0.417,0.229c0.427,0.099,1.125-0.344,2.083-1.333c0.958-0.984,2.073-2.797,3.354-5.438
				c0.094-0.193,0.229-0.318,0.396-0.375C89.361,64.952,89.528,64.973,89.684,65.067z"/>
		</g>
	</g>
</g>
<g>
	<g transform="translate(237.296365, 218.013535)">
		<g>
			<path style="fill:#FCD6D2;" d="M93.87,64.963c0.135,0.083,0.229,0.224,0.271,0.417c0.042,0.182,0.021,0.344-0.062,0.479
				c-0.573,0.932-1.307,1.911-2.208,2.938c-0.906,1.031-1.87,1.995-2.896,2.896c-1.031,0.906-2.057,1.635-3.083,2.208
				c-1.031,0.568-1.958,0.854-2.792,0.854c-0.182,0-0.349-0.01-0.5-0.021c-0.375-0.073-0.771-0.271-1.188-0.604
				c-0.406-0.333-0.682-0.927-0.833-1.771c-0.057-0.219-0.01-0.422,0.146-0.604c0.167-0.193,0.422-0.438,0.771-0.729
				c0.276-0.219,0.583-0.49,0.917-0.812c0.333-0.318,0.646-0.667,0.938-1.042c0.458-0.609,0.755-1.172,0.896-1.688
				c0.135-0.51,0.177-0.875,0.125-1.083c-0.115,0.042-0.344,0.219-0.688,0.521c-0.333,0.292-0.786,0.885-1.354,1.771
				c-0.698,1.031-1.312,2.182-1.854,3.458c-0.531,1.26-1.021,2.552-1.479,3.875c-0.458,1.333-0.865,2.604-1.229,3.812l-0.167,0.479
				c-0.094,0.292-0.302,0.438-0.625,0.438c-0.042,0-0.073,0-0.104,0c-0.385-0.073-0.568-0.302-0.542-0.688
				c0-0.182,0.083-0.703,0.25-1.562c0.167-0.849,0.396-1.948,0.688-3.292c0.292-1.333,0.62-2.812,0.979-4.438
				c0.349-1.635,0.719-3.318,1.104-5.042c0.401-1.719,0.792-3.406,1.167-5.062c0.375-1.667,0.719-3.193,1.042-4.583
				c0.026-0.042,0.042-0.094,0.042-0.167c0.417-1.719,0.734-3.062,0.958-4.021c0.526-2.094,1.109-4.005,1.75-5.729
				c0.635-1.734,1.271-3.115,1.896-4.146c0.635-1.042,1.208-1.625,1.708-1.75c0.359-0.052,0.656,0.078,0.896,0.396
				c0.318,0.432,0.281,1.37-0.104,2.812c-0.375,1.432-1.062,3.26-2.062,5.479c-1,2.208-2.26,4.688-3.771,7.438
				c-0.349,1.417-0.719,2.969-1.104,4.646c-0.391,1.667-0.781,3.37-1.167,5.104c-0.391,1.74-0.75,3.396-1.083,4.979
				c0.25-0.552,0.51-1.094,0.792-1.625c0.292-0.542,0.583-1.047,0.875-1.521c1.302-2.01,2.427-2.984,3.375-2.917
				c0.469,0.042,0.797,0.292,0.979,0.75c0.234,0.49,0.234,1.125,0,1.917c-0.224,0.781-0.615,1.536-1.167,2.271
				c-0.323,0.406-0.661,0.781-1.021,1.125c-0.365,0.349-0.698,0.646-1,0.896c-0.073,0.073-0.146,0.141-0.229,0.208
				c-0.073,0.073-0.125,0.125-0.167,0.167c0.083,0.385,0.214,0.651,0.396,0.792c0.177,0.135,0.339,0.214,0.479,0.229
				c0.5,0.094,1.167-0.057,2-0.458c0.844-0.401,1.75-0.99,2.708-1.771c0.969-0.776,1.938-1.677,2.896-2.708
				c0.969-1.042,1.812-2.146,2.521-3.312c0.083-0.167,0.214-0.26,0.396-0.292C93.526,64.838,93.703,64.869,93.87,64.963z
				 M87.64,42.213c-0.391,0.573-0.911,1.583-1.562,3.042c-0.656,1.448-1.302,3.411-1.938,5.896c1.135-2.302,1.969-4.198,2.5-5.688
				C87.182,43.978,87.515,42.895,87.64,42.213z"/>
		</g>
	</g>
</g>
<g>
	<g transform="translate(249.065477, 218.013535)">
		<g>
			<path style="fill:#FCD6D2;" d="M94.605,65.025c0.167,0.099,0.255,0.24,0.271,0.417c0.026,0.182-0.01,0.344-0.104,0.479
				c-1.349,1.875-2.583,3.427-3.708,4.646c-1.115,1.224-2.229,2.229-3.354,3.021c-0.833,0.594-1.667,0.896-2.5,0.896
				c-0.641,0-1.198-0.167-1.667-0.5c-0.323-0.24-0.63-0.646-0.938-1.229c-0.318-0.583-0.484-1.422-0.5-2.521
				c-0.026-1.109,0.245-2.568,0.812-4.375c0,0,0-0.01,0-0.042c0.677-2.193,1.484-3.865,2.417-5.021
				c0.927-1.151,1.719-1.74,2.375-1.771c0.526-0.01,0.875,0.219,1.042,0.688c0.25,0.667-0.052,1.615-0.896,2.833
				c-0.849,1.224-2.094,2.521-3.729,3.896c-0.516,1.599-0.76,2.849-0.729,3.75c0.026,0.906,0.151,1.557,0.375,1.958
				c0.234,0.391,0.422,0.646,0.562,0.771c0.677,0.5,1.552,0.359,2.625-0.417c1.052-0.734,2.115-1.688,3.188-2.854
				c1.068-1.177,2.25-2.672,3.542-4.479c0.109-0.135,0.255-0.219,0.438-0.25C94.303,64.88,94.465,64.916,94.605,65.025z
				 M87.48,60.463c-0.25,0.167-0.599,0.51-1.042,1.021c-0.432,0.516-0.875,1.266-1.333,2.25c0.833-0.802,1.417-1.484,1.75-2.042
				C87.199,61.124,87.407,60.713,87.48,60.463z"/>
		</g>
	</g>
</g>
<g>
	<g transform="translate(258.290809, 218.013535)">
		<g>
			<path style="fill:#FCD6D2;" d="M96.284,66.255c0.068,0.167,0.068,0.344,0,0.521c-0.057,0.167-0.161,0.292-0.312,0.375
				c-0.073,0.031-0.161,0.052-0.271,0.062c-0.099,0-0.344,0-0.729,0c-0.391,0-1.052,0-1.979,0c-0.531,0-1.12,0-1.771,0
				c-0.656,0-1.229,0-1.729,0s-0.823,0.016-0.958,0.042c-0.031,0-0.052,0-0.062,0c-0.391,0-0.615-0.193-0.667-0.583
				c-0.016-0.177,0.031-0.339,0.146-0.479c0.109-0.151,0.255-0.24,0.438-0.271c0.208-0.026,0.719-0.042,1.542-0.042
				c0.818,0,1.844,0.016,3.083,0.042c0.552,0,1.089,0,1.604,0c0.526,0,0.854,0,0.979,0C95.915,65.853,96.144,65.963,96.284,66.255z"
				/>
		</g>
	</g>
</g>
<g>
	<g transform="translate(269.006445, 218.013535)">
		<g>
			<path style="fill:#FCD6D2;" d="M103.335,65.275c0.135,0.083,0.229,0.224,0.271,0.417c0.052,0.182,0.031,0.333-0.062,0.458
				c-0.182,0.307-0.474,0.771-0.875,1.396c-0.406,0.615-0.885,1.292-1.438,2.042c-0.557,0.74-1.156,1.453-1.792,2.146
				c-0.625,0.698-1.245,1.271-1.854,1.729c-0.615,0.458-1.182,0.688-1.708,0.688c-0.182,0-0.344-0.036-0.479-0.104
				c-0.573-0.208-0.932-0.74-1.083-1.583c-0.156-0.844-0.104-2.068,0.146-3.667c-0.292,0.391-0.615,0.792-0.958,1.208
				c-0.333,0.406-0.698,0.781-1.083,1.125c-0.599,0.5-1.104,0.708-1.521,0.625c-0.406-0.094-0.677-0.214-0.812-0.354
				c-0.417-0.344-0.672-0.865-0.771-1.562c-0.109-0.693-0.073-1.464,0.104-2.312c0.167-0.859,0.479-1.693,0.938-2.5
				c0.083-0.151,0.214-0.25,0.396-0.292c0.193-0.052,0.365-0.031,0.521,0.062c0.167,0.083,0.271,0.219,0.312,0.396
				c0.042,0.167,0.021,0.328-0.062,0.479c-0.417,0.698-0.698,1.385-0.833,2.062c-0.141,0.667-0.182,1.245-0.125,1.729
				c0.068,0.474,0.177,0.781,0.333,0.917c0.094,0.073,0.214,0.057,0.354-0.042c0.151-0.109,0.25-0.177,0.292-0.208
				c0.443-0.385,0.859-0.833,1.25-1.333c0.385-0.5,0.714-0.958,0.979-1.375c0.375-0.5,0.677-0.865,0.917-1.104
				c0.234-0.234,0.51-0.292,0.833-0.167c0.318,0.125,0.479,0.385,0.479,0.771c0,0.391-0.057,0.911-0.167,1.562
				c-0.224,1.333-0.328,2.307-0.312,2.917c0.026,0.599,0.083,0.99,0.167,1.167c0.094,0.167,0.156,0.25,0.188,0.25
				c0.26,0.109,1.01-0.427,2.25-1.625c1.234-1.208,2.667-3.109,4.292-5.708c0.094-0.167,0.234-0.26,0.417-0.292
				C103.013,65.15,103.179,65.182,103.335,65.275z"/>
		</g>
	</g>
</g>
<g>
	<g transform="translate(279.95332, 218.013535)">
		<g>
			<path style="fill:#FCD6D2;" d="M100.651,59.963c0.677,0.208,1.13,0.75,1.354,1.625c0.234,0.875,0.208,1.896-0.083,3.062
				c-0.349,1.266-0.932,2.365-1.75,3.292c-0.807,0.932-1.573,1.698-2.292,2.292c-0.891,0.74-1.875,1.375-2.958,1.917
				c-0.365,1.443-0.74,3.047-1.125,4.812c-0.391,1.776-0.776,3.594-1.167,5.458c-0.385,1.859-0.75,3.672-1.083,5.438
				c-0.344,1.776-0.656,3.417-0.938,4.917c-0.292,1.5-0.521,2.75-0.688,3.75c-0.068,0.359-0.281,0.542-0.646,0.542
				c-0.042,0-0.073,0-0.104,0c-0.177-0.016-0.318-0.099-0.417-0.25c-0.109-0.156-0.151-0.323-0.125-0.5
				c0.182-1.307,0.427-2.849,0.729-4.625c0.292-1.781,0.62-3.703,0.979-5.771c0.349-2.073,0.708-4.198,1.083-6.375
				c0.375-2.167,0.76-4.302,1.146-6.396c-0.276,0.094-0.552,0.177-0.833,0.25c-0.177,0.052-0.344,0.031-0.5-0.062
				c-0.167-0.083-0.271-0.219-0.312-0.396c-0.042-0.182-0.01-0.344,0.083-0.5c0.083-0.167,0.219-0.271,0.396-0.312
				c0.458-0.125,0.927-0.281,1.396-0.479c0.125-0.625,0.245-1.229,0.354-1.812c0.115-0.594,0.214-1.177,0.312-1.75
				c0.318-1.802,0.609-3.464,0.875-4.979c0.276-1.526,0.5-2.781,0.667-3.771c0.177-1,0.271-1.568,0.271-1.708
				c0-0.417,0.198-0.63,0.604-0.646c0.193-0.026,0.354,0.021,0.479,0.146c0.135,0.125,0.219,0.281,0.25,0.458
				c0,0.042-0.021,0.203-0.062,0.479c-0.031,0.281-0.099,0.74-0.208,1.375c-0.115,0.641-0.281,1.562-0.5,2.771
				c-0.224,1.208-0.5,2.781-0.833,4.708c0.609-1.76,1.208-3.135,1.792-4.125c0.583-1,1.125-1.708,1.625-2.125
				c0.5-0.427,0.938-0.672,1.312-0.729C100.12,59.89,100.427,59.895,100.651,59.963z M100.651,64.317
				c0.219-0.901,0.271-1.625,0.146-2.167c-0.125-0.542-0.302-0.844-0.521-0.917c-0.031-0.026-0.062-0.042-0.104-0.042
				c-0.182,0-0.474,0.167-0.875,0.5c-0.406,0.333-0.875,0.953-1.417,1.854c-0.531,0.906-1.094,2.229-1.688,3.979
				c-0.224,0.698-0.495,1.656-0.812,2.875c1.234-0.75,2.339-1.646,3.312-2.688C99.677,66.661,100.328,65.525,100.651,64.317z"/>
		</g>
	</g>
</g>
<g>
	<defs>
		<rect id="SVGID_1_" x="13.333" y="202.667" width="90.573" height="110.339"/>
	</defs>
	<clipPath id="SVGID_00000040566698709264452060000001159265343225499071_">
		<use xlink:href="#SVGID_1_"  style="overflow:visible;"/>
	</clipPath>
	<g style="clip-path:url(#SVGID_00000040566698709264452060000001159265343225499071_);">
		<path style="fill-rule:evenodd;clip-rule:evenodd;fill:#FCD6D2;" d="M48.385,302.578c0.005,0.005,0.01,0.01,0.016,0.01
			c0.021,0,0.036-0.021,0.036-0.042c0-0.01,0-0.021-0.01-0.031c-2.484-1.781-4.922-3.656-7.307-5.615
			c-2.151-1.76-4.318-3.578-5.484-5.953c-0.016-0.026-0.036-0.036-0.068-0.026c-0.01,0-0.026,0.01-0.042,0.016
			c-0.031,0.01-0.042,0.026-0.031,0.057c1.349,2.911,3.693,5.12,6.427,7.109C43.948,299.578,46.099,301.073,48.385,302.578
			 M24.406,289.052c-1.161-5.599,1.651-11.375,5.885-14.927c1.833-1.542,3.823-2.823,5.958-3.839
			c0.016-0.01,0.026-0.021,0.026-0.036c0-0.026-0.021-0.042-0.047-0.042c0,0,0,0-0.005,0c-8.682,3.099-14.292,9.651-11.828,19.458
			c0.036,0.146,0.094,0.286,0.182,0.411c0.078,0.109,0.109,0.099,0.094-0.042l-0.115-0.901c0-0.01-0.01-0.026-0.026-0.026
			c-0.021,0-0.031,0-0.052,0C24.438,289.109,24.417,289.094,24.406,289.052z M84.589,274.651c1.99-0.031,3.844,0.005,5.547-0.63
			c3.177-1.188,5.276-4.188,5.682-7.521c0.068-0.589,0.302-2.745,0.094-2.906c-0.047-0.036-0.073-0.026-0.073,0.031
			c-0.365,5.625-3.328,9.458-9.151,9.901c-3.688,0.276-6.323,0.307-9.271,1.922c-0.198,0.109-0.193,0.13,0.021,0.052
			c1.385-0.49,2.5-0.745,3.344-0.766C82.052,274.698,83.318,274.672,84.589,274.651z M48.786,260.229
			c-1.214,2.703-4.469,3.839-7.224,4.354c-7.896,1.484-19.182,2.365-18.651,13.75c0,0.016,0,0.026,0.01,0.036
			c0.005,0.005,0.01,0.005,0.016,0.01c0.021,0.016,0.031,0.016,0.031-0.021c0.37-10.604,11.281-10.552,18.865-12.271
			c2.891-0.656,5.531-2.354,6.812-5.115c0.109-0.234,0.177-0.479,0.208-0.729C48.87,260.089,48.849,260.083,48.786,260.229z
			 M42.865,257.5c0.292-1.417,0.927-5.266-0.167-5.911c-0.068-0.042-0.094-0.021-0.089,0.052c0.146,1.729-0.026,3.422-0.505,5.078
			c-0.01,0.026-0.031,0.036-0.052,0.036c-0.031,0-0.057-0.026-0.057-0.052v-0.005c0.266-1.745,0.312-3.495,0.151-5.25
			c-0.005-0.078-0.057-0.125-0.13-0.13c-0.276-0.021-0.542,0.094-0.792,0.333c-1.073,1.031-1.661,2.224-1.771,3.578
			c-0.141,1.859,0.839,3.667,1.036,5.552c0.005,0.052,0.036,0.068,0.083,0.047c1.792-0.781,3.938-2.562,4.318-4.599
			c0.26-1.417-0.677-3.578-1.297-4.849c-0.083-0.172-0.104-0.167-0.057,0.021c0.062,0.234,0.198,0.443,0.224,0.667
			c0.188,1.891-0.094,3.708-0.844,5.448C42.849,257.672,42.833,257.667,42.865,257.5z M36.328,255.391
			c-1.281,1.281,1.198,2.521,1.604,0.078c0.312-1.859,1.141-3.458,2.495-4.792c0.047-0.042,0.036-0.078-0.026-0.094
			C39.995,250.49,36.958,254.766,36.328,255.391z M50.344,255.646c-0.094,0-0.167-0.016-0.219-0.036
			c-2.573-1.125-4.693-2.818-6.359-5.073c-0.062-0.083-0.094-0.078-0.099,0.031c-0.005,0.203,0.052,0.427,0.172,0.672
			c0.807,1.625,1.448,3.828,2.375,5.198c1.896,2.802,4.286,3.198,7.464,3.469c0.083,0.005,0.141,0.073,0.141,0.156
			c0,0.01,0,0.021,0,0.031c-2.016,9.583-13.375,13.255-21.172,16.677c-4.651,2.036-7.672,5.359-8.219,10.573
			c-0.047,0.474,0.005,0.984,0.167,1.526c0.016,0.042,0.026,0.042,0.026-0.005c0.167-2.453,0.99-4.589,2.458-6.401
			c1.698-2.089,4.354-3.599,6.932-4.49c4.245-1.458,6.76-2.302,9.865-4.089c5.042-2.906,9.62-7.75,10.359-13.729
			c0.005-0.073,0.047-0.089,0.115-0.062l0.542,0.245c0.062,0.031,0.099,0.01,0.104-0.062c0.312-4.104,0.698-7.281-2.573-9.682
			c-2.49-1.828-5.323-2.172-8.495-1.026c-0.031,0.01-0.052,0.042-0.052,0.073c0,0.016,0.005,0.031,0.01,0.047
			c1.656,2.516,3.625,4.568,6.474,5.896C50.464,255.63,50.458,255.651,50.344,255.646z M43.375,249.885
			c0-0.656-0.536-1.193-1.198-1.193c-0.656,0-1.193,0.536-1.193,1.193c0,0.661,0.536,1.198,1.193,1.198
			C42.839,251.083,43.375,250.547,43.375,249.885z M30.672,250.208c2.49-0.432,5.036-0.781,7.641-1.057
			c0.948-0.099,1.688-0.104,2.198-0.005c0,0.005,0.005,0,0.01-0.005c0.005-0.016,0.005-0.036,0.01-0.057
			c0.016-0.031,0-0.057-0.036-0.062c-2.12-0.458-4.266-0.745-6.427-0.859c-0.104-0.01-0.104-0.016-0.005-0.031
			c1.885-0.245,4.047,0.198,5.953,0.323c0.073,0.005,0.083-0.016,0.036-0.068c-1.354-1.411-2.953-2.219-4.938-2.438
			c-3.802-0.406-6.224,1.276-8.807,3.797c-0.047,0.047-0.042,0.083,0.016,0.109c3.172,1.615,4.656,4.151,8.354,3.062
			c2.177-0.646,3.516-2.75,5.818-3.224c0.146-0.026,0.146-0.052-0.005-0.073c-0.5-0.062-1.094,0.026-1.49,0.036
			c-2.724,0.099-5.5,0.307-8.318,0.615c-0.021,0-0.036-0.01-0.036-0.031C30.646,250.229,30.656,250.214,30.672,250.208z
			 M50.057,244.25c-0.474-0.042-0.88,0.109-1.214,0.448c-1.661,1.667-2.693,2.693-4.432,3.88c-0.214,0.141-0.198,0.167,0.036,0.073
			c1.12-0.443,2.292-1.318,3.214-1.948c0.911-0.625,1.63-0.854,2.667-0.984c0.062-0.005,0.115-0.031,0.156-0.078
			C50.99,245.083,50.958,244.323,50.057,244.25z M53.708,244.641c-0.245,0.12-0.51,0.161-0.792,0.13
			c-0.01,0-0.021-0.005-0.036-0.005c-0.172,0-0.318,0.141-0.318,0.323c0,0.036,0.005,0.073,0.016,0.104
			c0.208,0.599,0.536,0.99,0.99,1.182c1.938,0.818,3.016-1.495,1.938-2.854c-0.906-1.146-3.036-0.724-2.885,1.005
			c0.005,0.062,0.036,0.083,0.089,0.078l0.984-0.036C53.802,244.568,53.807,244.589,53.708,244.641z M33.828,242.307
			c0.651,0.547,5.719,5.469,6.099,5.156c0.047-0.036,0.042-0.073-0.005-0.104c-2.359-1.573-3.365-3.151-4.599-5.698
			C34.526,240.005,32.24,240.948,33.828,242.307z M31.224,237.974c-10,4.734-13.74,15.135-11.5,25.547
			c0.099,0.453,0.365,1.5,0.807,3.135c0.016,0.068,0.026,0.068,0.036,0c0.005-0.036,0.005-0.078-0.005-0.115
			c-0.552-2.802-0.578-5.688-0.302-8.568c0.729-7.703,4.464-15.474,10.99-19.958C31.406,237.911,31.396,237.901,31.224,237.974z
			 M45.443,237.984c0.25-0.042,0.693-0.62,0.766-0.87c0.026-0.057,0-0.083-0.062-0.073c-0.156,0.021-0.542,0.719-0.661,0.891
			c-0.016,0.021-0.047,0.036-0.073,0.036c-0.052,0-0.089-0.042-0.089-0.089c0-0.01,0-0.01,0-0.021l0.599-3.109
			c0.005-0.005,0.005-0.005,0.005-0.01c0-0.036-0.031-0.068-0.073-0.068c-0.005,0-0.01,0-0.021,0.005
			c-0.135,0.047-0.557,2.724-0.615,3.089c0,0.01,0,0.021,0,0.031c0,0.104,0.083,0.193,0.193,0.193
			C45.422,237.984,45.432,237.984,45.443,237.984z M45.13,233.698l0.125-0.042c0.042-0.016,0.073-0.042,0.094-0.083
			c0.151-0.375,0.354-0.719,0.62-1.031c0.208-0.25,0.234-0.234,0.078,0.052c-0.177,0.323-0.354,0.646-0.531,0.964
			c-0.031,0.057-0.026,0.104,0.005,0.156l0.495,0.745c0.042,0.062,0.083,0.062,0.13,0.005c0.109-0.135,0.245-0.193,0.417-0.177
			c0.073,0.01,0.141-0.005,0.203-0.047c0.479-0.349,0.76-0.818,0.844-1.401c0.01-0.062,0-0.125-0.031-0.177
			c-0.406-0.818-1.224-1.625-2.198-1.536c-2.323,0.214-2.12,3.281,0.219,3.396c0.135,0.005,0.214-0.052,0.229-0.177
			c0.005-0.068-0.016-0.12-0.068-0.161l-0.635-0.432C45.094,233.729,45.094,233.714,45.13,233.698z M52.552,234.068
			c0.177-1.234,0.375-2.484,0.604-3.75c0.026-0.161-0.036-0.208-0.182-0.146c-1.901,0.802-2.339,2.49-2.557,4.417
			c-0.01,0.062-0.042,0.109-0.094,0.146c-1.083,0.651-2.214,1.234-3.151,2.036c-0.583,0.495-1.146,1.005-1.688,1.536
			c-0.026,0.026-0.062,0.036-0.094,0.036c-0.047,0-0.094-0.021-0.115-0.057c-1.167-1.729-3.036-3.047-4.823-4.094
			c-0.052-0.031-0.104-0.026-0.146,0.026c-2.328,2.552-3.781,5.224-2.703,8.776c0.604,2.016,2.042,4.411,3.99,5.469
			c0.177,0.094,0.245,0.047,0.214-0.156c-0.599-3.49-0.646-6.984-0.135-10.49c0-0.016,0.01-0.016,0.021-0.01
			c0.016,0.01,0.026,0.021,0.026,0.042c-0.057,3.396,0.083,6.818,1.125,10.099c0.01,0.026,0.031,0.036,0.057,0.036
			s0.057-0.021,0.057-0.052v-0.005c0-0.224-0.01-0.427,0.057-0.651c0.292-1.005,0.495-1.958,0.615-2.865
			c0.151-1.193,0.276-2.599,0.38-4.214c0.026-0.307,0.036-0.307,0.047,0c0.068,2.401-0.182,4.583-0.682,6.927
			c-0.021,0.078,0.01,0.109,0.089,0.078c0.094-0.031,0.188-0.031,0.276,0.005c0.078,0.036,0.099,0.083,0.057,0.161l-0.109,0.177
			c0,0.01-0.005,0.016-0.005,0.026c0,0.036,0.026,0.062,0.062,0.062c0.01,0,0.021-0.005,0.031-0.005
			c3.104-1.917,3.432-4.818,2.182-8.031c-0.047-0.12-0.026-0.271-0.026-0.401c0-0.026,0.005-0.026,0.031-0.01
			c0.01,0.01,0.021,0.026,0.031,0.036c0.021,0.026,0.052,0.031,0.083,0.01c1.557-1.104,2.875-2.052,4.594-2.583
			c0.057-0.016,0.094,0,0.125,0.052c0.297,0.542,0.99,1.885,0.896,2.479c-0.01,0.057,0.016,0.068,0.062,0.047
			c0.385-0.172,1.193-0.516,2.411-1.031c3.922-1.661,3.109-6.365,0.026-8.266c-0.005,0-0.016-0.005-0.021-0.005
			c-0.036-0.005-0.062,0.016-0.068,0.052c0,0.005,0,0.016,0.005,0.021c0.453,1.37,0.661,2.729,0.234,4.146
			c-0.198,0.656-0.427,1.562-0.823,2.229c-0.198,0.344-0.219,0.328-0.057-0.036c0.875-1.979,1.25-3.401,0.599-5.38
			c-0.109-0.333-0.12-0.604-0.427-0.844c-0.021-0.016-0.052-0.026-0.078-0.026c-0.062,0-0.109,0.042-0.125,0.094
			c-0.349,1.281-0.63,2.573-0.844,3.875C52.411,235.135,52.396,235.135,52.552,234.068z M47.083,230.865
			c2.057,1.167,3.26-0.151,4.953-1.031c0.083-0.047,0.073-0.068-0.016-0.062c-1.156,0.016-2.292-0.109-3.411-0.38
			c-0.448-0.109-0.781-0.135-0.995-0.089C46.99,229.453,46.25,230.396,47.083,230.865z M56.214,230.484
			c0.005-0.01,0.01-0.031,0.016-0.047c0.021-0.068,0.057-0.083,0.12-0.052c0.615,0.318,1.271,0.438,1.958,0.365
			c2.354-0.266,4.406-1.188,6.156-2.776c0.047-0.042,0.036-0.073-0.021-0.099c-0.036-0.016-0.068-0.005-0.099,0.026
			c-2.104,1.995-5.281,3.224-8.172,2.297c-0.073-0.021-0.188-0.016-0.339,0.016c-0.057,0.01-0.109,0-0.161-0.031
			c-0.365-0.245-0.755-0.432-1.177-0.568c-0.198-0.068-0.214-0.036-0.047,0.089c1.052,0.771,2.005,1.651,2.859,2.62
			c0.339,0.396,0.615,0.635,0.818,0.729c1.724,0.802,2.146-1.057,0.693-1.5c-0.88-0.266-1.74-0.599-2.573-0.995
			C56.214,230.542,56.203,230.521,56.214,230.484z M65.656,227.125c0.01-0.031,0.01-0.062,0.01-0.089
			c0-0.177-0.12-0.328-0.292-0.375l-0.214-0.047c-0.026-0.01-0.057-0.01-0.089-0.01c-0.177,0-0.333,0.12-0.37,0.292l-0.062,0.25
			c-0.01,0.026-0.01,0.057-0.01,0.089c0,0.177,0.125,0.333,0.292,0.37l0.214,0.052c0.031,0.005,0.062,0.01,0.094,0.01
			c0.172,0,0.328-0.125,0.37-0.292L65.656,227.125z M58.068,228.401c-0.818,0.349-1.682,0.51-2.578,0.479
			c-0.062,0-0.078,0.026-0.057,0.078c0.052,0.141,2.911,0.13,3.245,0.083c0.026,0,0.052,0,0.073,0.005
			c0.026,0.005,0.052,0.021,0.068,0.036c0.036,0.036,0.026,0.062-0.021,0.073c-1.271,0.26-2.552,0.297-3.833,0.089
			c-0.073-0.01-0.141,0.005-0.188,0.042c-0.047,0.036-0.042,0.057,0.016,0.073c0.229,0.042,0.573,0.141,1.042,0.302
			c2.417,0.828,6.844-1.021,7.745-3.552c0.005-0.01,0.005-0.026,0.005-0.036c0-0.052-0.042-0.099-0.089-0.104
			c-1.339-0.109-2.661-0.042-3.974,0.198c-1.714,0.307-2.875,1.234-4.203,2.427c-0.021,0.021-0.016,0.026,0.01,0.026
			c0.917-0.005,1.828-0.104,2.724-0.281C58.255,228.302,58.255,228.323,58.068,228.401z M61.224,238.307
			c8.781,0.427,17.391-3.208,18.891-12.854c0-0.021-0.016-0.042-0.042-0.042c-0.016,0-0.031,0.01-0.036,0.026
			c-1.448,8.016-10.354,12.479-17.729,12.651c-0.682,0.016-1.365,0.042-2.052,0.094c-0.167,0.005-0.167,0.026,0,0.042
			C60.578,238.266,60.901,238.292,61.224,238.307z M78.13,223.057c-0.505,6.552-7.125,9.448-12.516,11
			c-0.24,0.073-0.24,0.083,0.01,0.047c5.146-0.833,10.042-3.047,12.057-8.219c0.172-0.443,0.755-2.516,0.495-2.839
			C78.151,223.01,78.135,223.021,78.13,223.057z M56.177,223.089c-0.734,1.141-1.344,2.349-1.823,3.62
			c-0.089,0.245-0.052,0.464-0.224,0.74c-0.354,0.557-0.323,0.568,0.078,0.047c0.635-0.807,1.396-1.453,2.036-2.266
			c0.042-0.057,0.057-0.047,0.047,0.026c0,0.01-0.01,0.031-0.01,0.052c-0.005,0.031-0.026,0.068-0.057,0.104
			c-0.646,0.719-1.234,1.49-1.781,2.297c-0.005,0.01-0.01,0.026-0.01,0.042c-0.005,0.042,0.026,0.089,0.073,0.094
			c0.01,0,0.026,0,0.042-0.01c2.245-0.891,4.312-2.344,4.682-4.974c0.13-0.906,0.25-1.818,0.38-2.729
			c0.005-0.062-0.021-0.094-0.083-0.089c-2.948,0.135-4.885,1.599-5.828,4.391c-0.375,1.13-0.484,2.26-0.307,3.385
			c0.01,0.078,0.031,0.078,0.057,0.005c0.578-1.766,1.474-3.354,2.693-4.766C56.276,222.901,56.292,222.911,56.177,223.089z
			 M50.146,223.318c0.844,1.76,1.776,3.474,2.786,5.141c0.052,0.083,0.068,0.078,0.047-0.021c-0.115-0.5-0.245-0.901-0.224-1.422
			c0.109-2.641-0.453-4.844-2.807-6.37c-0.734-0.479-1.667-0.911-2.073-1.698c-0.036-0.078-0.078-0.078-0.13-0.01
			c-2.802,3.828-2.245,10.109,3.625,10.438c0.104,0.005,0.12-0.031,0.052-0.109c-1.708-1.922-2.786-4.156-3.24-6.693
			c-0.036-0.203-0.01-0.208,0.057-0.021c0.875,2.365,2.115,4.938,4.167,6.333c0.073,0.047,0.094,0.031,0.062-0.047
			c-0.146-0.354-0.214-0.719-0.37-1.057c-0.255-0.557-2.036-4.156-1.979-4.458C50.12,223.297,50.13,223.297,50.146,223.318z
			 M51.099,208.958c-17.323,4.833-30.432,19.151-34.786,36.396c-0.318,1.276-0.568,2.198-0.745,2.755
			c-0.479,1.542-0.453,1.552,0.078,0.026c3.812-10.891,11.109-19.969,22.573-23.151c0.062-0.021,0.115-0.068,0.141-0.125
			c2.604-6.302,6.979-12.115,12.776-15.818c0.01-0.005,0.016-0.016,0.021-0.021c0.01-0.031-0.005-0.052-0.031-0.062
			C51.115,208.953,51.104,208.953,51.099,208.958z M80.984,235.5c-0.021-0.005-0.026-0.026-0.026-0.042
			c0-0.026,0.01-0.047,0.036-0.047c0.74-0.047,1.271-0.12,1.589-0.219c1.286-0.391,2.917-1,4.083-1.036
			c1.901-0.073,3.688,1.172,4.964,2.464c0.641,0.651,0.76,1.552-0.214,1.964c-0.062,0.026-0.115,0.021-0.167-0.016
			c-1.901-1.25-3.104-3.359-5.714-3.052C84.078,235.688,82.385,236.031,80.984,235.5z M81.714,240.125
			c1.562,0.885,3.156,1.703,4.792,2.448c0.25,0.083,1.557,0.495,1.651,0.656c0.047,0.083,0.036,0.141-0.047,0.182l-0.172,0.083
			c-0.135,0.068-0.13,0.104,0.021,0.115c0.526,0.042,1.031-0.016,1.531-0.177c0.151-0.052,0.172-0.021,0.057,0.089
			c-0.219,0.214-0.464,0.359-0.76,0.432c-0.057,0.016-0.104,0.047-0.141,0.094c-0.068,0.089-0.151,0.13-0.25,0.125
			c-0.24-0.005-0.26,0.068-0.068,0.203c0.203,0.156,0.443,0.24,0.714,0.25c0.026,0.005,0.042,0.016,0.031,0.047
			c-0.01,0.016-0.01,0.026-0.021,0.042c0,0.01-0.005,0.016-0.016,0.021l-0.974,0.146c-0.062,0.01-0.13,0.005-0.193-0.016
			l-0.495-0.167c-0.12-0.036-0.167,0.005-0.151,0.13l0.062,0.365c0.016,0.078-0.016,0.099-0.089,0.052
			c-0.203-0.135-0.052-0.474-0.427-0.557c-0.083-0.016-0.109,0.016-0.083,0.094l0.109,0.312c0.031,0.078,0.01,0.094-0.062,0.052
			c-0.25-0.146-0.161-0.583-0.51-0.557c-0.12,0.005-0.146,0.057-0.078,0.151c0.042,0.052,0.036,0.104-0.005,0.161
			c-0.057,0.068-0.104,0.062-0.146-0.021l-0.219-0.458c-0.047-0.099-0.099-0.109-0.161-0.021l-0.271,0.359
			c-0.109,0.151-0.156,0.13-0.135-0.047c0.01-0.13,0.052-0.26,0.125-0.37c0.052-0.083,0.036-0.141-0.057-0.172l-0.151-0.052
			c-0.057-0.01-0.099,0-0.13,0.047c-0.094,0.141-0.24,0.161-0.458,0.073c0.005,0,0.005,0,0.005,0
			c-0.047-0.016-0.068-0.062-0.052-0.109c0.078-0.203,0.01-0.344-0.208-0.432c-0.083-0.031-0.13-0.005-0.146,0.083
			c-0.016,0.099-0.068,0.167-0.151,0.193c-0.057,0.016-0.089-0.005-0.104-0.073l-0.073-0.547c-0.016-0.12-0.078-0.151-0.188-0.094
			l-0.255,0.141c-0.104,0.052-0.156,0.026-0.156-0.094v-0.411c0-0.068-0.036-0.104-0.104-0.094l-0.339,0.047
			c-0.052,0.005-0.078-0.016-0.073-0.068l0.021-0.307c0-0.068-0.031-0.089-0.094-0.057l-0.182,0.073
			c-0.125,0.052-0.156,0.016-0.104-0.104l0.089-0.208c0.052-0.125,0.016-0.172-0.115-0.141l-0.224,0.052
			c-0.094,0.021-0.13-0.016-0.12-0.104L82,241.729c0.016-0.083-0.021-0.13-0.109-0.13h-0.172c-0.115,0-0.146-0.047-0.089-0.141
			c0.083-0.151,0.036-0.229-0.146-0.24c-0.083-0.005-0.12-0.052-0.094-0.141c0.026-0.109,0-0.177-0.083-0.219
			c-0.052-0.026-0.094-0.057-0.125-0.104l-0.698-1.042c-0.047-0.073-0.036-0.094,0.047-0.057L81.714,240.125z M62.448,246.109
			l-0.125,0.016c-0.005,0.005-0.005,0.005-0.01,0.005c0.005,0,0.005,0,0.01-0.005L62.448,246.109z M88.599,253.005
			c-0.615-0.557-0.677-1.172-0.188-1.849c0.073-0.099,0.104-0.089,0.083,0.036c-0.141,0.844,0.177,1.495,1.016,1.562
			c0.807,0.068,1.865-1.031,2.453,0.276c0.031,0.073,0.01,0.115-0.068,0.13C91.333,253.276,89.193,253.536,88.599,253.005z
			 M78.089,301.25c2.323,1.557,6.25,4.505,5.474,7.812c-0.13,0.562-1.896,1-2.427,1.188c-0.062,0.016-0.099,0-0.109-0.068
			c-0.047-0.276,0.031-0.594,0.026-0.812c-0.068-2.854-1.453-5.766-3.005-8.073C77.974,301.203,77.99,301.182,78.089,301.25z
			 M75.302,265.802c2.38,1.052,4.432,1.87,6.141,2.458c2.417,0.833,4.828,0.005,5.047-2.849c0.135-1.755-0.26-2.557,1.76-3.036
			c0.38-0.094,0.755-0.219,1.125-0.38c-2.214-0.12-3.839-1.505-4.797-3.417c-0.031-0.068-0.01-0.094,0.057-0.078
			c1.943,0.411,4.057-0.62,5.443-1.224c0.573-0.25,1.089-0.151,1.552,0.286c-0.359-1.167-0.911-1.828-0.458-3.115
			c0.047-0.146,0.167-0.255,0.312-0.292c1.036-0.271,2.797-0.625,2.854-1.922c0.026-0.562-0.411-1.167-0.714-1.625
			c-1.198-1.859-1.964-3.969-2.13-6.083c-0.13-1.703,0.859-3.594,1.542-5.167c0.995-2.281,1.375-4.708,1.146-7.292
			c-0.427-4.786-3.698-8.948-8.896-8.568c-2.12,0.156-2.359,1.266-2.922,3.214c-0.182,0.63-0.365,1.266-0.547,1.896
			c-1.51,5.302-5.99,9.198-11.089,10.891c-1.839,0.615-3.818,1.099-5.953,1.458c0.396,0.849,0.547,1.698,0.464,2.557
			c-0.094,0.943-1.385-0.156-1.714-0.521c-0.646-0.729-1.094-1.198-1.349-1.401c-3.344,0.443-0.932,3.495,0.276,4.516
			c0.594,0.464,1.26,0.776,1.995,0.948c0.724,0.161-0.182,0.422-0.396,0.411c1.036,1.026,1.854,1.974,2.479,2.854
			c1.37,1.938,1.807,5.312-0.37,6.953c-3.198,2.401-6.068-2.786-2.87-4.432c0.01-0.01,0.026-0.01,0.031-0.01
			c0.031,0,0.057,0.031,0.057,0.062c0,0.01-0.005,0.031-0.021,0.042c-0.901,0.792-1.26,2.052-0.719,3.135
			c0.568,1.13,1.974,1.266,2.948,0.615c1.552-1.031,1.141-3.323,0.224-4.625c-1.188-1.682-2.974-2.932-4.542-4.24
			c-0.901-0.75-1.651-1.531-2.406-2.385c-0.042-0.047-0.073-0.042-0.078,0.031c-0.271,2.495-0.167,4.979,0.292,7.443
			c0.557,2.974,1.146,5.703,1.115,8.932c-0.083,9.609-5.583,16.031-14.604,18.672c-2.021,0.594-4.062,1.156-6.109,1.677
			c-1.177,0.297-2.417,0.849-3.708,1.651c-4.365,2.708-4.682,7.786-1.656,11.635c0.005,0.01,0.026,0.016,0.042,0.016
			c0.026,0,0.047-0.021,0.047-0.047c0-0.005,0-0.021-0.005-0.026c-2.312-3.682-2.078-7.667,1.547-10.323
			c4.083-2.995,9.927-3.104,14.708-1.901c5.146,1.292,9.781,4.042,13.776,7.443c6.25,5.333,12.198,12.219,15.589,19.755
			c0.01,0.021,0.016,0.047,0.016,0.068c0,0.073-0.052,0.135-0.12,0.156c-3.953,1.125-7.979,1.76-12.089,1.896
			c-0.042,0-0.078-0.031-0.078-0.073c-0.229-4.177-1.802-7.755-4.703-10.74c-2.281-2.344-4.745-4.297-7.385-5.859
			c-0.526-0.312-0.531-0.297-0.021,0.042c5.672,3.729,11.125,9.391,11.615,16.578c0.005,0.068-0.021,0.099-0.089,0.099h-0.922
			c-0.073,0-0.13-0.036-0.161-0.109c-1.865-4.448-6.891-8.083-10.974-10.844c-4.62-3.12-9.349-6.068-14.193-8.833
			c-1.469-0.844-3.078-1.901-4.635-2.833c-0.51-0.312-0.516-0.297-0.026,0.036c4.661,3.161,9.312,6.333,13.953,9.521
			c3.062,2.104,5.969,4.391,8.734,6.87c1.781,1.604,3.656,3.651,4.432,5.964c0.036,0.12-0.005,0.172-0.125,0.161
			c-15.766-1.448-29.703-9.573-38.724-22.479c-1.333-1.917-2.911-4.349-4.036-6.5c-5.562-10.625-7.328-21.927-5.318-33.922
			c3.698-22.026,19.833-40.641,42.083-45.448c9.922-2.141,19.896-1.016,27.901,5.536c0.01,0.01,0.016,0.021,0.016,0.036
			c0,0.021-0.016,0.042-0.036,0.042c-4.26,0.484-8.307,2.172-11.833,4.557c-0.109,0.073-0.104,0.083,0.021,0.036
			c0.802-0.328,1.604-0.651,2.417-0.964c7.578-2.932,16.24-2.797,22.005,3.63c3.932,4.375,4.703,10.38,2.656,15.891
			c-1.104,2.974-2.797,5.62-4.318,8.38c-1.927,3.495-1.125,7.51,1.984,9.99c2.917,2.328,6.078,4.432,6.083,8.672
			c0.005,1.375-0.323,2.693-0.979,3.964c-0.083,0.161-0.109,0.156-0.083-0.031c0.089-0.589,0.219-1.224,0.245-1.74
			c0.177-4.25-2.958-5.693-6.26-7.104c-0.005,0-0.016,0-0.026,0c-0.036,0-0.062,0.026-0.062,0.062c0,0.021,0,0.031,0.016,0.042
			c1.255,1.438,2.365,2.995,3.318,4.682c3.781,6.651,1.604,15.979-7.375,16.344c-0.109,0.005-0.125-0.031-0.047-0.109
			c4.016-3.734,4.865-9.266,3.031-14.312c-0.026-0.073-0.042-0.073-0.042,0.01c-0.026,0.823,0.516,1.656,0.51,2.594
			c-0.021,5.484-2.646,11.359-8.88,11.844c-2.604,0.203-5.297-0.229-7.755,0.917c-1.755,0.818-2.938,2.177-3.536,4.078
			c-1.391,4.391,0.375,8.073,3.807,10.865c4.151,3.37,9.438,6.547,7.651,13.01c-0.203,0.74-0.458,1.333-0.776,1.776
			c-0.161,0.229-0.193,0.208-0.094-0.047c1.729-4.469-0.854-7.271-4.562-9.557c-3.109-1.917-6.474-3.26-9.354-5.573
			c-3.854-3.099-6.125-8.052-5.255-13.021c0.552-3.161,1.859-6.188,3.391-8.979c-0.318-0.62-0.63-1.234-0.938-1.859
			c-1.604-3.198-3.911-6.052-5.354-9.312c-0.042-0.099-0.026-0.109,0.047-0.026C67.677,261.896,71.391,263.677,75.302,265.802z"/>
	</g>
</g>
<g>
	<defs>
		<rect id="SVGID_00000140712569057983207440000004174430129215984062_" x="86.531" y="274.115" width="34.802" height="33.885"/>
	</defs>
	<clipPath id="SVGID_00000070102524684361900660000010253592553375764622_">
		<use xlink:href="#SVGID_00000140712569057983207440000004174430129215984062_"  style="overflow:visible;"/>
	</clipPath>
	<g style="clip-path:url(#SVGID_00000070102524684361900660000010253592553375764622_);">
		<path style="fill:#FCD6D2;" d="M116.432,288.292c-1.542-0.312-3.12-0.307-4.682,0.005c-1.135,0.224-2.271,0.62-3.391,1.167
			c0.589-0.505,1.271-1.198,1.922-2.109c0.615-0.859,1.115-1.792,1.49-2.786c1.833-0.844,3.318-1.646,4.448-2.312
			c2.557-1.505,3.87-2.63,3.88-2.641c0.911-0.802,1.354-2.104,1.12-3.323c-0.182-0.943-0.729-1.641-1.495-1.911
			c-0.719-0.255-1.37-0.141-1.839,0.312c-0.49,0.479-0.688,1.271-0.474,1.917c0.234,0.719,0.818,1.052,1.297,1.062
			c0.01,0,0.021,0,0.031,0c0.38,0,0.688-0.198,0.818-0.536c0.245-0.62-0.12-1.062-0.344-1.208c-0.068-0.042-0.156-0.026-0.198,0.042
			c-0.047,0.068-0.026,0.156,0.042,0.198c0.021,0.016,0.453,0.302,0.234,0.865c-0.089,0.234-0.297,0.359-0.578,0.354
			c-0.359-0.01-0.839-0.286-1.031-0.865c-0.172-0.542-0.005-1.224,0.406-1.62c0.38-0.375,0.927-0.464,1.536-0.25
			c0.672,0.24,1.151,0.854,1.307,1.693c0.219,1.12-0.188,2.318-1.021,3.052c-0.016,0.01-1.312,1.125-3.849,2.62
			c-1.068,0.625-2.453,1.375-4.151,2.167c0.135-0.391,0.25-0.792,0.349-1.203c0.479-2,0.521-4.208,0.125-6.562l-0.036-0.193
			l-0.172,0.089c-0.021,0.01-2.229,1.146-4,3.448c-1.042,1.349-1.734,2.839-2.057,4.411c-0.156,0.781-0.224,1.583-0.203,2.406
			c-0.469,0.161-0.948,0.318-1.443,0.469c-0.021,0.01-0.922,0.318-2.323,1.026c-0.026-0.208-0.068-0.422-0.115-0.641
			c-0.292-1.271-0.693-3.089,0.146-5.214c0,0-4.469,2.719-3.953,8.245c-0.417,0.302-0.844,0.62-1.271,0.969
			c-2.208,1.76-4.135,3.797-5.734,6.052c0.312-0.849,0.651-2.01,0.812-3.339c0.193-1.604,0.083-3.135-0.323-4.547
			c-0.51-1.766-1.49-3.344-2.911-4.693l-0.286-0.271l0.047,0.391c0,0.021,0.224,2.292-1.177,6.292
			c-0.854,2.453-0.016,4.453,0.562,5.427c0.714,1.203,1.661,1.995,2.297,2.214c-1.672,2.703-2.906,5.688-3.667,8.896l0.276,0.073
			c0.005-0.016,0.526-1.646,1.906-3.729c0.411-0.62,0.927-1.323,1.562-2.057c0.234,0.448,1.115,1.74,3.349,1.302
			c1.823-0.359,3.698-2.073,3.698-2.073s-3.448-1.552-6.651,0.323c1.297-1.406,3.016-2.896,5.255-4.115
			c0.25-0.135,0.495-0.271,0.734-0.401c0.104,0.359,0.417,1.198,1.297,2.016c0.948,0.88,2.745,1.88,6.036,1.88
			c0.297,0,0.604-0.01,0.927-0.026h0.005c0.031-0.005,3.073-0.286,5.167-0.109l0.255,0.021l-0.115-0.229
			c-0.036-0.078-0.974-1.943-3.12-3.37c-1.255-0.839-2.672-1.349-4.198-1.51c-1.495-0.161-3.099,0.01-4.786,0.505
			c3.344-1.901,5.854-3.542,7.854-5.135c0.219,0.255,0.833,0.854,2.01,1.26c0.63,0.219,1.49,0.401,2.604,0.401
			c1.286,0,2.917-0.24,4.932-0.938c0.031-0.01,2.938-1.125,5.078-1.594l0.297-0.068l-0.24-0.188
			C120.646,290.042,119.057,288.812,116.432,288.292z M116.359,288.568c1.484,0.297,2.641,0.828,3.359,1.234
			c-2.87-0.786-7.422-0.396-9.812,0.323c-1.677,0.505-2.833,0.698-3.417,0.766C110.516,288.161,114.068,288.115,116.359,288.568z
			 M106.302,291.083c0.495-0.047,1.74-0.214,3.656-0.792c2.531-0.766,7.531-1.156,10.286-0.146
			c-0.052,0.016-0.104,0.026-0.156,0.042c-0.63-0.052-2.875-0.13-7.099,0.745c-3.849,0.802-5.922,0.49-6.448,0.38
			C106.438,291.224,106.359,291.146,106.302,291.083z M108.151,286.083c-0.391,1.25-0.771,2.599-1.125,4.021
			c-0.062,0.036-0.109,0.068-0.156,0.094c0.016-1.359,0.13-2.615,0.307-3.755C107.51,286.323,107.833,286.203,108.151,286.083z
			 M107.234,286.115c0.37-2.167,0.969-3.906,1.505-5.151c0.708-1.646,1.422-2.714,1.724-3.13c0.432-0.359,0.828-0.635,1.141-0.844
			c-0.495,1.052-1.938,4.26-3.349,8.745C107.922,285.865,107.583,285.99,107.234,286.115z M107.234,289.964
			c0.359-1.401,0.734-2.724,1.12-3.958c0.448-0.172,0.88-0.344,1.297-0.516c-0.531,1.333-1.161,2.724-1.896,4.094
			C107.562,289.734,107.385,289.865,107.234,289.964z M106.708,289.693c-0.292-0.995-0.458-1.969-0.505-2.906
			c0.271-0.094,0.531-0.188,0.792-0.276C106.844,287.49,106.74,288.552,106.708,289.693z M110.057,287.177
			c-0.661,0.927-1.37,1.63-1.958,2.13c0.682-1.318,1.271-2.641,1.776-3.911c0.526-0.219,1.031-0.438,1.516-0.656
			C110.995,285.714,110.521,286.526,110.057,287.177z M111.536,284.354c-0.479,0.224-0.984,0.443-1.516,0.667
			c1.271-3.281,1.964-6.141,2.24-7.406C112.562,280.385,112.177,282.615,111.536,284.354z M112.198,277.089
			c-0.161,0.807-0.875,4.135-2.396,8.026c-0.432,0.182-0.88,0.359-1.339,0.542c1.531-4.849,3.094-8.182,3.411-8.839
			c0.104-0.062,0.188-0.115,0.26-0.151C112.156,276.807,112.177,276.948,112.198,277.089z M108.401,279.943
			c0.505-0.661,1.047-1.219,1.562-1.682c-0.365,0.562-0.875,1.448-1.38,2.63c-0.547,1.271-1.161,3.062-1.536,5.292
			c-0.281,0.104-0.562,0.203-0.854,0.302C106.146,284.109,106.88,281.917,108.401,279.943z M104.562,287.323
			c0.469-0.146,0.922-0.297,1.365-0.443c0.062,1.13,0.292,2.297,0.688,3.49c-0.208,0.177-0.427,0.354-0.651,0.536l-0.109,0.078
			l0.005,0.005c-1.568,1.245-3.448,2.526-5.807,3.943c0.698-0.885,2.438-3.443,2.135-6.552
			C103.62,287.646,104.547,287.328,104.562,287.323z M90.292,298.672c-0.333-0.495-1.698-2.714-1.505-6.099
			c0.182-3.078,0.026-4.844-0.047-5.453c0.031-0.224,0.057-0.432,0.073-0.62c0.266,0.745,0.734,2.708,0.865,7.365
			c0,0.141,0.062,3.312,0.75,4.781c-0.01,0.021-0.021,0.042-0.031,0.062C90.365,298.698,90.328,298.682,90.292,298.672z
			 M89.849,293.865c-0.156-5.583-0.786-7.312-1.005-7.75c0.01-0.151,0.016-0.286,0.021-0.411c0.24,0.443,0.651,1.307,1.021,2.656
			c0.521,1.88,1.062,5.12,0.729,9.88c-0.031,0.073-0.062,0.141-0.089,0.198C89.906,296.948,89.849,293.896,89.849,293.865z
			 M91.755,294.104c-0.182,1.51-0.599,2.802-0.938,3.646c0.266-4.521-0.26-7.62-0.766-9.453c-0.464-1.677-0.979-2.599-1.177-2.917
			C91.755,288.297,92.036,291.719,91.755,294.104z M88.198,296.599c-0.552-0.932-1.359-2.844-0.536-5.188
			c0.5-1.432,0.797-2.635,0.969-3.604c0.068,0.885,0.12,2.453-0.016,4.755c-0.172,3.031,0.885,5.146,1.375,5.953
			C89.469,298.208,88.771,297.568,88.198,296.599z M95.839,297.328c-3.714,2.021-6.031,4.771-7.323,6.724
			c-0.469,0.708-0.844,1.37-1.13,1.932c2.182-7.099,6.427-11.672,9.745-14.323c0.385-0.307,0.766-0.599,1.141-0.87
			c0.167,1.297,0.604,2.745,1.438,4.344c-0.943,0.557-1.953,1.135-3.047,1.74l-0.01,0.005
			C96.385,297.031,96.115,297.177,95.839,297.328z M97.474,296.88c0.375,0.094,1.583,0.359,3.729,0.495
			c3.307,0.203,6.292,1.307,8.469,3.115c-0.74-0.453-2.745-1.469-6.182-1.797c-3.615-0.344-5.745-1.323-6.411-1.667
			C97.214,296.974,97.344,296.927,97.474,296.88z M104.953,300.76c-3.771,0.198-5.745-0.849-6.734-1.766
			c-0.547-0.5-0.865-1.016-1.042-1.406c0.755,0.589,2.698,1.859,5.578,2.146c2.432,0.24,4.12,0.625,5,0.87
			C106.302,300.635,105.026,300.755,104.953,300.76z M108.339,300.594c-0.573-0.182-2.474-0.724-5.568-1.031
			c-3.24-0.323-5.266-1.906-5.729-2.307c-0.01-0.026-0.016-0.047-0.026-0.073c0.698,0.365,2.854,1.339,6.458,1.682
			c3.354,0.318,5.318,1.297,6.073,1.745C109.156,300.594,108.745,300.589,108.339,300.594z M106.995,297.594
			c1.354,0.896,2.224,2,2.672,2.667c-2.198-1.776-5.167-2.854-8.453-3.057c-1.766-0.109-2.885-0.307-3.427-0.427
			C101.297,295.635,104.464,295.911,106.995,297.594z M115.484,291.672c-3.667,1.266-6.005,0.995-7.323,0.547
			c-0.578-0.198-1.016-0.448-1.333-0.677c0.333,0.052,0.844,0.099,1.547,0.099c1.083,0,2.615-0.115,4.651-0.542
			c3.396-0.703,5.495-0.786,6.505-0.766C117.583,290.865,115.505,291.667,115.484,291.672z"/>
	</g>
</g>
<path style="fill:#FCD6D2;" d="M93.141,286.979c0,0.703,0.573,1.276,1.276,1.276c0.708,0,1.276-0.573,1.276-1.276
	s-0.568-1.276-1.276-1.276C93.714,285.703,93.141,286.276,93.141,286.979z M94.417,286.047c0.516,0,0.932,0.417,0.932,0.932
	c0,0.51-0.417,0.932-0.932,0.932c-0.51,0-0.932-0.422-0.932-0.932C93.484,286.464,93.906,286.047,94.417,286.047z"/>
<path style="fill:#FCD6D2;" d="M93.896,283.146c0,0.115-0.042,0.219-0.13,0.302c-0.083,0.083-0.182,0.125-0.302,0.125
	c-0.12,0-0.219-0.042-0.302-0.125c-0.083-0.083-0.13-0.188-0.13-0.302c0-0.12,0.047-0.224,0.13-0.307
	c0.083-0.083,0.182-0.125,0.302-0.125c0.12,0,0.219,0.042,0.302,0.125C93.854,282.922,93.896,283.026,93.896,283.146z"/>
<path style="fill:#FCD6D2;" d="M96.901,282.875c0.193,0.078,0.328,0.214,0.406,0.406c0.083,0.193,0.083,0.385,0,0.578
	c-0.078,0.193-0.214,0.333-0.406,0.411c-0.193,0.078-0.385,0.078-0.578,0c-0.193-0.078-0.328-0.219-0.411-0.411
	c-0.078-0.193-0.078-0.385,0-0.578c0.083-0.193,0.219-0.328,0.411-0.406C96.516,282.797,96.708,282.797,96.901,282.875z"/>
<path style="fill:#FCD6D2;" d="M105.312,280.484c0,0.208-0.073,0.385-0.219,0.531c-0.146,0.146-0.323,0.224-0.536,0.224
	c-0.208,0-0.385-0.078-0.531-0.224c-0.146-0.146-0.224-0.323-0.224-0.531c0-0.214,0.078-0.391,0.224-0.536
	c0.146-0.146,0.323-0.224,0.531-0.224c0.214,0,0.391,0.078,0.536,0.224C105.24,280.094,105.312,280.271,105.312,280.484z"/>
<path style="fill:#FCD6D2;" d="M119.474,285.385c0,0.214-0.073,0.391-0.219,0.536c-0.151,0.146-0.328,0.224-0.536,0.224
	c-0.208,0-0.385-0.078-0.531-0.224c-0.151-0.146-0.224-0.323-0.224-0.536c0-0.208,0.073-0.385,0.224-0.531
	c0.146-0.146,0.323-0.224,0.531-0.224c0.208,0,0.385,0.078,0.536,0.224C119.401,285,119.474,285.177,119.474,285.385z"/>
<path style="fill:#FCD6D2;" d="M116.104,285.276c0,0.245,0.193,0.438,0.432,0.438c0.245,0,0.438-0.193,0.438-0.438
	c0-0.24-0.193-0.438-0.438-0.438C116.297,284.839,116.104,285.036,116.104,285.276z"/>
<path style="fill:#FCD6D2;" d="M119.625,283.635c0-0.135-0.109-0.245-0.245-0.245s-0.245,0.109-0.245,0.245
	c0,0.135,0.109,0.245,0.245,0.245S119.625,283.771,119.625,283.635z"/>
<path style="fill:#FCD6D2;" d="M102.672,279.13c0.031,0.125,0.01,0.24-0.057,0.349c-0.062,0.109-0.161,0.177-0.281,0.208
	c-0.125,0.026-0.24,0.01-0.349-0.057s-0.177-0.161-0.208-0.286c-0.026-0.125-0.01-0.24,0.057-0.349
	c0.068-0.104,0.161-0.177,0.286-0.203c0.125-0.031,0.24-0.01,0.349,0.057C102.573,278.911,102.646,279.01,102.672,279.13z"/>
</svg>
